<?xml version="1.0" encoding="UTF-8" standalone="no"?>
<svg
   xmlns:a="http://ns.adobe.com/AdobeSVGViewerExtensions/3.0/"
   xmlns:dc="http://purl.org/dc/elements/1.1/"
   xmlns:cc="http://creativecommons.org/ns#"
   xmlns:rdf="http://www.w3.org/1999/02/22-rdf-syntax-ns#"
   xmlns:svg="http://www.w3.org/2000/svg"
   xmlns="http://www.w3.org/2000/svg"
   xmlns:xlink="http://www.w3.org/1999/xlink"
   version="1.1"
   id="svg2"
   height="125.291"
   width="182.467">
  <g
     transform="translate(0,-927.07118)"
     id="layer1">
    <circle
       style="opacity:1;fill:#000000;fill-opacity:1;stroke:none;stroke-width:5.1748023;stroke-linecap:round;stroke-miterlimit:4;stroke-dasharray:none;stroke-dashoffset:0;stroke-opacity:1;paint-order:stroke fill markers"
       id="circle32770"
       cx="39.465446"
       cy="969.76807"
       r="20" />
    <circle
       r="20"
       cy="967.76807"
       cx="85.465446"
       id="circle32772"
       style="opacity:1;fill:#000000;fill-opacity:1;stroke:none;stroke-width:5.1748023;stroke-linecap:round;stroke-miterlimit:4;stroke-dasharray:none;stroke-dashoffset:0;stroke-opacity:1;paint-order:stroke fill markers" />
    <circle
       r="20"
       cy="1011.6598"
       cx="40.265926"
       id="circle32774"
       style="opacity:1;fill:#000000;fill-opacity:1;stroke:none;stroke-width:5.1748023;stroke-linecap:round;stroke-miterlimit:4;stroke-dasharray:none;stroke-dashoffset:0;stroke-opacity:1;paint-order:stroke fill markers" />
    <path
       id="path18241"
       d="M 62.836007,927.07118 C 28.150358,927.07118 0,955.13724 0,989.71769 c 0,34.58051 28.150353,62.64461 62.836007,62.64451 13.765265,0 26.491951,-4.4324 36.847702,-11.9257 h 66.000071 c 6.25785,0 11.68408,-3.3873 14.57033,-8.4239 -0.88127,-0.027 -1.61389,-0.4849 -2.19336,-1.3906 l -4.28321,-6.6738 h -20.47268 l -4.30275,6.6738 c -0.45154,0.7312 -0.9543,1.0977 -1.50781,1.0977 -0.29133,0 -0.64098,-0.092 -1.04883,-0.2793 -0.88854,-0.4201 -1.33398,-0.9894 -1.33398,-1.7051 0,-0.1555 0.0435,-0.3112 0.13086,-0.4668 l 15.33791,-25.0391 c 0.58263,-0.949 1.5743,-1.4613 2.97266,-1.5391 1.1507,-0.062 2.00311,0.2787 2.55664,1.0254 0.0437,0.1245 0.12368,0.2959 0.24023,0.5137 l 15.59377,23.5723 c 0.32944,-1.312 0.52344,-2.6791 0.52344,-4.0957 v -17.1602 c 0,-9.26911 -7.4859,-16.73241 -16.78322,-16.73241 h -40.01372 c 5e-5,-0.0321 0.002,-0.0636 0.002,-0.0957 0,-34.58045 -28.150363,-62.64651 -62.836013,-62.64651 z m 0,8.35352 c 30.060905,0 54.459043,24.32326 54.459043,54.29299 0,0.0321 -0.002,0.0636 -0.002,0.0957 H 82.461028 c -9.29732,0 -16.781268,7.4633 -16.781268,16.73241 v 17.1602 c 0,9.2093 7.389738,16.6252 16.603538,16.7207 -6.042126,2.3067 -12.594624,3.584 -19.447291,3.584 -30.060896,0 -54.4570918,-24.3233 -54.4570918,-54.29301 0,-29.96973 24.3961958,-54.29299 54.4570918,-54.29299 z m 105.851673,57.95314 c 0.39326,0 0.75677,0.13993 1.09181,0.41992 0.34956,0.2645 0.52537,0.5758 0.52539,0.9336 -2e-5,0.2023 -0.0593,0.39728 -0.17578,0.58398 -0.11655,0.1711 -1.12898,1.27646 -3.03712,3.31446 -1.90819,2.0381 -2.96406,3.1414 -3.16797,3.3125 -0.3059,0.249 -0.63285,0.3731 -0.98242,0.373 -0.3933,10e-5 -0.74296,-0.1319 -1.04883,-0.3964 -0.29134,-0.2644 -0.43752,-0.5758 -0.4375,-0.9336 -2e-5,-0.3112 0.13038,-0.6066 0.39258,-0.8867 l 6.0957,-6.41607 c 0.18934,-0.2022 0.43822,-0.30469 0.74414,-0.30469 z m -81.431724,9.63676 c 1.136141,0 1.703112,0.6069 1.703132,1.8203 v 0.5605 c -2e-5,1.2291 -0.566991,1.8438 -1.703132,1.8438 -0.131111,0 -0.444221,-0.01 -0.939451,-0.023 h -1.246102 c -4.777707,0 -7.16603,0.9969 -7.16602,2.9882 v 1.9825 c -10e-6,1.2446 0.996621,2.0544 2.992194,2.4277 0.801121,0.1401 2.229372,0.209 4.283206,0.209 h 6.488287 c 2.884064,0 5.331656,0.4295 7.341809,1.2851 2.825791,1.2135 4.238251,3.1267 4.238281,5.7403 v 2.5429 c -3e-5,1.5091 -0.22426,2.6992 -0.67578,3.5704 -1.23815,2.318 -4.894713,3.4765 -10.96876,3.4765 H 74.80086 c -1.121601,0 -1.681642,-0.6147 -1.681642,-1.8437 0,-0.8245 0.08,-1.3999 0.24024,-1.7266 0.247621,-0.4667 0.727651,-0.6991 1.441402,-0.6992 h 16.80276 c 4.530035,10e-5 6.794898,-0.8945 6.794928,-2.6836 v -2.4512 c -3e-5,-1.7735 -2.191793,-2.7212 -6.576177,-2.8457 -7.472439,-0.2334 -11.544835,-0.4126 -12.214866,-0.5371 -4.369845,-0.7934 -6.554687,-2.878 -6.554687,-6.2539 v -2.1484 c 0,-3.3915 1.718642,-5.5766 5.156256,-6.5567 1.587691,-0.4512 4.604205,-0.6777 9.046882,-0.6777 z m 21.957054,0 c 1.13615,0 1.70507,0.6069 1.70508,1.8203 v 24.7598 c -1e-5,1.229 -0.56893,1.8418 -1.70508,1.8418 -1.19443,0 -1.90757,-0.037 -2.14062,-0.1152 -0.67005,-0.2178 -1.00586,-0.7932 -1.00586,-1.7266 v -24.7598 c 0,-0.9334 0.33581,-1.5107 1.00586,-1.7285 0.23305,-0.062 0.94619,-0.092 2.14062,-0.092 z m 16.08205,0 h 17.36916 c 0.71371,0 1.1957,0.2245 1.44336,0.6757 0.17476,0.3111 0.26168,0.8806 0.26172,1.7051 -4e-5,1.2291 -0.56896,1.8418 -1.70508,1.8418 h -17.28127 c -4.19506,0 -6.29298,0.8945 -6.29297,2.6837 v 14.0723 c -1e-5,2.1158 2.32215,3.1738 6.96876,3.1738 h 16.49611 c 1.17982,0 1.77145,0.7073 1.77148,2.123 -3e-5,1.4313 -0.59166,2.1485 -1.77148,2.1485 h -16.49611 c -2.22863,0 -3.83075,-0.094 -4.80666,-0.2813 -1.04876,-0.1867 -2.16194,-0.6142 -3.34179,-1.2832 -1.29639,-0.7156 -2.22188,-1.4939 -2.77539,-2.334 -0.59721,-0.8867 -0.89649,-2.0374 -0.89649,-3.4531 v -14.1426 c 0,-1.7737 0.7724,-3.2966 2.31641,-4.5723 1.31094,-1.0579 2.86265,-1.7593 4.6543,-2.1016 0.94678,-0.1711 2.30886,-0.2558 4.08594,-0.2558 z m 38.25786,5.041 -7.40626,11.5977 h 14.76955 z"
       style="fill:#000000;fill-opacity:1;fill-rule:evenodd;stroke:none;stroke-width:0.41827282" />
  </g>
  <style
     type="text/css"
     id="style26" />
  <style
     id="style26-0"
     type="text/css" />
  <style
     id="style26-3"
     type="text/css" />
  <style
     id="style26-1"
     type="text/css" />
  <style
     id="style26-6"
     type="text/css" />
</svg>
