<?xml version="1.0" encoding="UTF-8" standalone="no"?>
<svg
   xmlns:dc="http://purl.org/dc/elements/1.1/"
   xmlns:cc="http://creativecommons.org/ns#"
   xmlns:rdf="http://www.w3.org/1999/02/22-rdf-syntax-ns#"
   xmlns:svg="http://www.w3.org/2000/svg"
   xmlns="http://www.w3.org/2000/svg"
   xmlns:xlink="http://www.w3.org/1999/xlink"
   id="svg38120"
   version="1.1"
   viewBox="0 0 180 180"
   height="180mm"
   width="180mm">
  <defs
     id="defs38114" />
  <metadata
     id="metadata38117">
    <rdf:RDF>
      <cc:Work
         rdf:about="">
        <dc:format>image/svg+xml</dc:format>
        <dc:type
           rdf:resource="http://purl.org/dc/dcmitype/StillImage" />
        <dc:title></dc:title>
      </cc:Work>
    </rdf:RDF>
  </metadata>
  <g
     transform="translate(0,-117)"
     id="layer1">
    <g
       transform="translate(9.3191759,-10.035923)"
       id="g52273">
      <circle
         style="opacity:1;fill:#ffffff;fill-opacity:1;stroke:#000000;stroke-width:4;stroke-linecap:round;stroke-linejoin:bevel;stroke-miterlimit:4;stroke-dasharray:none;stroke-dashoffset:0;stroke-opacity:1;paint-order:stroke fill markers"
         id="path52057"
         cx="-82.366409"
         cy="-222.77376"
         r="74.815491"
         transform="scale(-1)" />
      <path
         style="fill:#ffffff;stroke:#000000;stroke-width:0.40000001;stroke-linecap:butt;stroke-linejoin:miter;stroke-miterlimit:4;stroke-dasharray:none;stroke-opacity:1"
         d="m 93.73704,221.36862 1.22897,3.31821 -0.1229,7.7425 -20.15506,2.70372 0.98318,-8.97146 z"
         id="path52024" />
      <path
         style="fill:#ffffff;stroke:#000000;stroke-width:1;stroke-linecap:butt;stroke-linejoin:miter;stroke-miterlimit:4;stroke-dasharray:none;stroke-opacity:1"
         d="M 10.140534,242.17646 A 74.81549,74.81549 0 0 0 82.366616,297.5891 74.81549,74.81549 0 0 0 147.15646,260.05599 Z"
         id="path51832" />
      <text
         xml:space="preserve"
         style="font-style:normal;font-variant:normal;font-weight:normal;font-stretch:normal;font-size:22.01205826px;line-height:1.25;font-family:aakar;-inkscape-font-specification:aakar;letter-spacing:0px;word-spacing:0px;fill:#000000;fill-opacity:1;stroke:none;stroke-width:0.55030143"
         id="text59865"><textPath
           xlink:href="#path52057"
           id="textPath52070"><tspan
   style="font-style:normal;font-variant:normal;font-weight:normal;font-stretch:normal;font-family:Ubuntu;-inkscape-font-specification:Ubuntu;fill:#000000;stroke-width:0.55030143"
   id="tspan59863">Emi: Padawan animator</tspan></textPath></text>
      <g
         id="g51764"
         transform="translate(241.20531,40.624823)">
        <path
           id="path51073"
           d="m -163.38553,227.37112 -5.48066,6.23661 c 15.00492,3.92042 29.83975,5.56719 45.16816,7.37053 l 3.77976,-6.80357 c -14.70681,-4.3989 -28.35746,-5.55597 -43.46726,-6.80357 z"
           style="fill:none;stroke:#000000;stroke-width:0.60000002;stroke-linecap:butt;stroke-linejoin:miter;stroke-miterlimit:4;stroke-dasharray:none;stroke-opacity:1" />
        <path
           id="path51075"
           d="m -164.51946,228.88303 c 14.73016,1.14682 29.05398,4.51056 43.46726,7.55952 v 0"
           style="fill:none;stroke:#000000;stroke-width:0.60000002;stroke-linecap:butt;stroke-linejoin:miter;stroke-miterlimit:4;stroke-dasharray:none;stroke-opacity:1" />
        <path
           id="path51077"
           d="m -166.12586,231.24538 c 14.42283,3.75635 29.20151,5.33049 43.93973,7.27604"
           style="fill:none;stroke:#000000;stroke-width:0.60000002;stroke-linecap:butt;stroke-linejoin:miter;stroke-miterlimit:4;stroke-dasharray:none;stroke-opacity:1" />
        <path
           id="path51079"
           d="m -158.37735,227.84359 c -2.97792,2.35699 -3.8724,3.77604 -5.48066,6.99256"
           style="fill:none;stroke:#000000;stroke-width:0.60000002;stroke-linecap:butt;stroke-linejoin:miter;stroke-miterlimit:4;stroke-dasharray:none;stroke-opacity:1" />
        <path
           id="path51081"
           d="m -152.42422,228.31606 c -1.46005,2.98081 -3.55543,5.33273 -5.76414,7.74851"
           style="fill:none;stroke:#000000;stroke-width:0.60000002;stroke-linecap:butt;stroke-linejoin:miter;stroke-miterlimit:4;stroke-dasharray:none;stroke-opacity:1" />
        <path
           id="path51083"
           d="m -146.75458,229.07201 -3.30729,3.77977 -3.02381,4.15773"
           style="fill:none;stroke:#000000;stroke-width:0.60000002;stroke-linecap:butt;stroke-linejoin:miter;stroke-miterlimit:4;stroke-dasharray:none;stroke-opacity:1" />
        <path
           id="path51085"
           d="m -140.70696,229.63898 c -3.41682,2.98033 -5.87814,4.45031 -7.65402,8.31547"
           style="fill:none;stroke:#000000;stroke-width:0.60000002;stroke-linecap:butt;stroke-linejoin:miter;stroke-miterlimit:4;stroke-dasharray:none;stroke-opacity:1" />
        <path
           id="path51087"
           d="m -132.29699,230.77291 c -4.69767,2.61185 -6.80421,4.02356 -9.92188,8.03199"
           style="fill:none;stroke:#000000;stroke-width:0.60000002;stroke-linecap:butt;stroke-linejoin:miter;stroke-miterlimit:4;stroke-dasharray:none;stroke-opacity:1" />
        <path
           id="path51089"
           d="m -128.13926,231.90684 c -1.7031,4.19565 -2.86956,5.19933 -6.04761,8.12648"
           style="fill:none;stroke:#000000;stroke-width:0.60000002;stroke-linecap:butt;stroke-linejoin:miter;stroke-miterlimit:4;stroke-dasharray:none;stroke-opacity:1" />
        <path
           id="path51091"
           d="m -123.60354,233.13526 c -0.85415,2.78622 -2.31185,5.14489 -3.87426,7.55952"
           style="fill:none;stroke:#000000;stroke-width:0.60000002;stroke-linecap:butt;stroke-linejoin:miter;stroke-miterlimit:4;stroke-dasharray:none;stroke-opacity:1" />
        <path
           id="path51093"
           d="m -167.73317,225.40121 c -2.0313,-0.88092 -4.04712,-1.16966 -6.21401,-1.33634 l -1.5368,1.9377 1.67043,0.13364 -1.00226,1.73725 2.00452,0.66817 1.46998,-1.46998 2.47225,0.20045 z"
           style="fill:none;stroke:#000000;stroke-width:0.60000002;stroke-linecap:butt;stroke-linejoin:miter;stroke-miterlimit:4;stroke-dasharray:none;stroke-opacity:1" />
        <path
           id="path51095"
           d="m -170.73995,230.41252 -10.22306,-1.87089 c -3.33659,1.51936 -4.95628,3.05435 -7.28309,5.67948 4.06318,0.17186 7.87369,1.26656 11.75985,2.33861 1.45825,-2.97384 3.18489,-4.25176 5.7463,-6.1472 z"
           style="fill:none;stroke:#000000;stroke-width:0.60000002;stroke-linecap:butt;stroke-linejoin:miter;stroke-miterlimit:4;stroke-dasharray:none;stroke-opacity:1" />
        <path
           id="path51097"
           d="m -186.17477,232.08295 c 4.36756,-0.33095 7.13857,0.64779 11.15851,2.00452"
           style="fill:none;stroke:#000000;stroke-width:0.60000002;stroke-linecap:butt;stroke-linejoin:miter;stroke-miterlimit:4;stroke-dasharray:none;stroke-opacity:1" />
        <path
           id="path51099"
           d="m -183.30162,229.87798 c 3.63336,0.20999 7.108,1.14597 10.62397,2.00452"
           style="fill:none;stroke:#000000;stroke-width:0.60000002;stroke-linecap:butt;stroke-linejoin:miter;stroke-miterlimit:4;stroke-dasharray:none;stroke-opacity:1" />
        <path
           id="path51101"
           d="m -185.90749,234.42156 c 2.42015,-2.51791 5.25955,-3.89573 8.35217,-5.34539"
           style="fill:none;stroke:#000000;stroke-width:0.60000002;stroke-linecap:butt;stroke-linejoin:miter;stroke-miterlimit:4;stroke-dasharray:none;stroke-opacity:1" />
        <path
           id="path51103"
           d="m -174.4149,229.9448 c -3.81098,1.73374 -4.02456,2.2525 -6.34766,5.47902"
           style="fill:none;stroke:#000000;stroke-width:0.60000002;stroke-linecap:butt;stroke-linejoin:miter;stroke-miterlimit:4;stroke-dasharray:none;stroke-opacity:1" />
        <path
           id="path51666"
           d="m -112.27474,233.15203 c -21.56562,-5.76874 -42.38007,-8.15855 -64.41196,-10.42351 -4.27631,5.81311 -11.65565,6.04611 -15.63526,13.36347 l 30.60236,5.07813 42.09495,4.81085 c 5.56338,-5.51187 5.65368,-5.74901 7.34991,-12.82894 z"
           style="fill:none;stroke:#000000;stroke-width:0.80000001;stroke-linecap:butt;stroke-linejoin:miter;stroke-miterlimit:4;stroke-dasharray:none;stroke-opacity:1" />
        <path
           id="path51668"
           d="m -192.32196,236.09199 v 3.47451 c 24.35512,3.51855 49.39585,5.18338 73.83124,8.06812 6.09503,-4.98763 6.66902,-7.16936 6.21598,-14.48259"
           style="fill:none;stroke:#000000;stroke-width:0.80000001;stroke-linecap:butt;stroke-linejoin:miter;stroke-miterlimit:4;stroke-dasharray:none;stroke-opacity:1" />
      </g>
      <g
         style="fill:#ffffff"
         id="g51702"
         transform="translate(241.20531,40.624823)">
        <path
           id="path51691"
           d="m -154.97024,207.41964 -32.41146,-5.85863 -23.15104,11.1503 c 5.40552,2.68193 9.18922,2.95802 15.02456,3.59077 4.28221,-2.03384 4.50394,-2.76501 6.42559,1.41741 8.35036,1.05225 16.73612,1.2593 25.13542,1.51191 3.71827,-3.40444 6.24722,-7.63364 8.97693,-11.81176 z"
           style="fill:#ffffff;stroke:#000000;stroke-width:0.80000001;stroke-linecap:butt;stroke-linejoin:miter;stroke-miterlimit:4;stroke-dasharray:none;stroke-opacity:1" />
        <path
           id="path51693"
           d="m -210.53274,212.71131 -0.0945,3.77976 c 4.87098,1.94259 9.87365,2.33835 15.02455,2.83482 2.43835,-3.22903 4.31546,-2.57508 3.77977,0.75595 9.70517,1.57652 19.49329,1.73702 29.29315,2.07887 4.39783,-4.5628 5.93777,-7.37466 8.22098,-12.94568 l -0.66146,-1.79539"
           style="fill:#ffffff;stroke:#000000;stroke-width:0.80000001;stroke-linecap:butt;stroke-linejoin:miter;stroke-miterlimit:4;stroke-dasharray:none;stroke-opacity:1" />
        <path
           id="path51695"
           d="m -161.58482,209.12053 -22.58408,-4.06324 -14.83556,6.61458 c 10.14926,2.39341 20.54775,2.93767 30.89955,3.87426 2.27506,-2.04009 4.3936,-4.23466 6.52009,-6.4256 z"
           style="fill:#ffffff;stroke:#000000;stroke-width:0.80000001;stroke-linecap:butt;stroke-linejoin:miter;stroke-miterlimit:4;stroke-dasharray:none;stroke-opacity:1" />
      </g>
      <path
         style="fill:#ffffff;stroke:#000000;stroke-width:2;stroke-linecap:round;stroke-linejoin:miter;stroke-miterlimit:4;stroke-dasharray:none;stroke-opacity:1"
         d="m 40.61953,257.84487 c 0,0 -8.5602,4.08194 -8.28535,7.88445 0.28335,3.92009 10.38588,2.96007 9.6217,6.81538 -1.0484,5.28924 -8.380492,-3.02861 -12.944763,2.03917"
         id="path51697" />
      <path
         style="fill:#ffffff;stroke:#000000;stroke-width:1;stroke-linecap:round;stroke-linejoin:miter;stroke-miterlimit:4;stroke-dasharray:none;stroke-opacity:1;paint-order:stroke markers fill"
         d="m 102.59019,244.11747 c 4.66776,4.66778 5.41945,5.91856 7.27604,11.77396 -2.29453,5.25377 -6.30844,6.22052 -4.89479,9.92188 -2.45947,1.6967 -2.94874,1.45706 -3.70417,4.10104 l -5.95312,3.57187 c -0.8006,3.6544 0.0892,2.47239 3.83646,3.175 l 2.91041,-2.64583 -0.26458,2.64583 -0.66146,2.64584 c 0.49662,4.19062 4.10104,2.51354 4.10104,2.51354 l 1.71979,-1.98438 0.26459,-3.96875 -0.52917,-1.85208 4.23333,2.11667 2.77813,3.175 c 3.67022,0.49712 5.18923,-1.83805 1.45521,-6.35 l 1.71979,-1.45521 2.11666,2.77812 c 3.76239,0.93565 3.22264,-2.71141 1.98438,-7.54062 7.3299,-13.61353 0.4677,-15.21239 -5.22552,-26.45833 z"
         id="path51793" />
      <path
         style="fill:#ffffff;stroke:#000000;stroke-width:1;stroke-linecap:round;stroke-linejoin:miter;stroke-miterlimit:4;stroke-dasharray:none;stroke-opacity:1;paint-order:stroke markers fill"
         d="m 120.97873,266.73935 c -2.97261,-5.62816 -7.10715,-3.04537 -6.48225,2.71198"
         id="path51795" />
      <path
         style="fill:#ffffff;stroke:#000000;stroke-width:1;stroke-linecap:round;stroke-linejoin:miter;stroke-miterlimit:4;stroke-dasharray:none;stroke-opacity:1;paint-order:stroke markers fill"
         d="m 105.10373,246.8956 c 7.56728,-0.94788 8.31253,-1.88592 14.55208,-5.55625 -6.61759,-11.49647 -7.48925,-18.25269 -22.62187,-18.52083 l -6.48229,6.2177 c -1.02187,4.57912 -11.37471,5.04892 -13.75834,1.05834 l -11.64166,-10.45104 -4.36563,1.98437 c -2.23734,3.2681 -4.97454,6.00168 -7.80521,8.73125 l 0.79375,16.80104 56.09167,8.73125 -1.12448,-4.6302 z"
         id="path51818" />
      <path
         style="fill:#ffffff;stroke:#000000;stroke-width:0.69999999;stroke-linecap:butt;stroke-linejoin:miter;stroke-miterlimit:4;stroke-dasharray:none;stroke-opacity:1"
         d="m 69.91415,238.56122 c -9.15229,-11.36 -30.50603,-12.62877 -23.8125,3.70417 4.64008,2.3921 9.66967,3.47083 14.68437,4.7625 z"
         id="path51820" />
      <path
         style="fill:#000000;stroke:#000000;stroke-width:1;stroke-linecap:butt;stroke-linejoin:miter;stroke-miterlimit:4;stroke-dasharray:none;stroke-opacity:1"
         d="m 55.38104,234.35772 c 4.87328,6.38634 10.45934,12.0753 16.08963,17.77342 3.50514,1.13659 4.64492,2.81739 3.1805,-1.30962 -6.29089,-5.90621 -10.37942,-12.08592 -15.06063,-19.17658 0,0 -4.11178,-0.26746 -4.2095,2.71278 z"
         id="path51814" />
      <path
         style="fill:#ffffff;stroke:#000000;stroke-width:1;stroke-linecap:round;stroke-linejoin:bevel;stroke-miterlimit:4;stroke-dasharray:none;stroke-opacity:1;paint-order:stroke markers fill"
         d="m 76.71007,248.88546 c -2.1979,-1.58222 -4.36909,-3.17563 -6.73519,-4.49014 -2.67185,3.21966 -5.55147,0.67354 -6.17393,-0.84189 l -2.99342,-2.15152 c -0.51868,1.60434 -0.97939,3.21317 -1.30962,4.8643 0.91439,2.06285 2.10006,3.5921 3.74178,5.0514 l -0.93545,-0.65481 c 0.17034,3.63767 5.45909,3.90786 6.92228,4.0224 1.2482,-0.45628 2.3161,-1.07796 2.80639,-2.05797 l -3.27406,-3.08696 4.11595,1.30962 c 1.51827,0.044 3.93758,-0.43112 3.83527,-1.96443 z"
         id="path51822" />
      <path
         style="fill:none;stroke:#000000;stroke-width:0.60000002;stroke-linecap:round;stroke-linejoin:bevel;stroke-miterlimit:4;stroke-dasharray:none;stroke-opacity:1;paint-order:stroke markers fill"
         d="m 63.23969,251.31761 c 1.39136,0.76353 2.76475,0.89522 4.30304,1.02899"
         id="path51824" />
      <path
         style="fill:#ffffff;stroke:#000000;stroke-width:0.69999999;stroke-linecap:butt;stroke-linejoin:miter;stroke-miterlimit:4;stroke-dasharray:none;stroke-opacity:1"
         d="m 65.0855,239.35497 c 2.34875,-0.92844 2.37223,-0.92653 4.82865,-0.79375 2.65002,3.56123 2.47363,2.98313 6.68073,4.0349 1.0667,1.47473 0.19382,3.42808 -1.98438,4.29948 -3.43738,-0.10335 -5.50702,-1.9577 -5.50702,-1.9577 0.0931,-2.48123 -1.83788,-2.79817 -4.01798,-5.58293 z"
         id="path51830" />
      <path
         style="fill:#ffffff;stroke:#000000;stroke-width:0.40000001;stroke-linecap:butt;stroke-linejoin:miter;stroke-miterlimit:4;stroke-dasharray:none;stroke-opacity:1"
         d="m 61.59017,202.91727 -4.43985,-5.2471 -1.88358,-1.47995 c -2.49646,2.15308 -1.00986,2.7727 0.13454,5.91981 l 2.42174,3.76714 1.21087,4.43986 c 2.3429,3.06635 1.10852,3.84026 4.03623,1.74903 z"
         id="path51879" />
      <path
         style="fill:#ffffff;stroke:#000000;stroke-width:0.40000001;stroke-linecap:butt;stroke-linejoin:miter;stroke-miterlimit:4;stroke-dasharray:none;stroke-opacity:1"
         d="m 105.71962,198.61196 c -2.85379,-3.73727 -2.99104,-0.20679 -4.97802,3.76715 l -2.9599,4.97802 1.07633,6.59251 v 0 c 4.60441,-2.94621 6.60906,-8.42631 6.86159,-15.33768 z"
         id="path51881" />
      <path
         style="fill:#ffffff;stroke:#000000;stroke-width:0.40000001;stroke-linecap:butt;stroke-linejoin:miter;stroke-miterlimit:4;stroke-dasharray:none;stroke-opacity:1"
         d="m 59.30297,184.08153 -0.6727,18.0285 2.2872,8.07246 2.55627,8.8797 5.38164,5.78526 7.93793,5.24711 3.90168,0.94178 4.30531,-0.80724 c 7.97932,-4.21972 10.64202,-8.41887 13.85773,-16.27946 l 1.88357,-11.57053 0.26909,-9.68695 -4.03623,-9.28333 -10.4942,-8.207 -14.66497,-0.80725 -8.07246,5.91981 z"
         id="path51877" />
      <path
         style="fill:#000000;stroke:#000000;stroke-width:0.28965226px;stroke-linecap:butt;stroke-linejoin:miter;stroke-opacity:1"
         d="m 84.99522,163.17054 -11.79654,0.0956 -10.65547,1.8075 -1.02057,4.00647 -5.44852,4.23787 -1.47994,5.18036 0.47069,10.29227 0.20196,7.39971 1.8833,1.47995 1.47994,4.43982 0.60533,-1.81655 -0.47069,-3.36325 0.53802,-2.21991 1.14389,-0.87461 0.60533,-1.54727 0.0673,-4.84319 c 1.7884,-5.44651 1.06507,-4.42036 6.39045,-7.46703 l 3.09453,-2.21991 -0.0113,-0.30719 1.84428,1.70227 6.84982,-0.095 3.23483,3.32987 4.66158,3.13921 2.94915,4.47151 2.66343,2.28328 0.19065,1.33172 0.57083,-3.23483 -1.33229,-2.66344 -1.04603,-1.23668 2.09262,1.99758 1.52237,2.28328 -0.095,-1.61742 -1.61742,-2.66344 -2.09319,-1.90311 4.37647,2.47393 0.57081,1.90254 v 1.61741 l 1.33173,-3.04474 2.664,8.0865 0.81013,6.76779 3.08999,-4.6746 -0.38016,-2.75905 0.38016,-6.65917 0.19065,-4.94729 -1.6174,-6.65917 -9.98905,-11.7015 z"
         id="path51883" />
      <path
         style="fill:none;stroke:#ffffff;stroke-width:0.54737443;stroke-linecap:round;stroke-linejoin:miter;stroke-miterlimit:4;stroke-dasharray:none;stroke-opacity:1;paint-order:stroke markers fill"
         d="m 70.59294,177.45119 c -2.20451,-2.68679 -3.80234,-5.00045 -6.26181,-9.63082"
         id="path51889" />
      <path
         style="fill:none;stroke:#ffffff;stroke-width:0.54737443;stroke-linecap:round;stroke-linejoin:miter;stroke-miterlimit:4;stroke-dasharray:none;stroke-opacity:1;paint-order:stroke markers fill"
         d="m 73.48382,167.83238 c 6.3824,1.09732 6.35615,1.24645 10.84537,5.32755"
         id="path51892" />
      <path
         style="fill:none;stroke:#ffffff;stroke-width:0.54737443;stroke-linecap:butt;stroke-linejoin:miter;stroke-miterlimit:4;stroke-dasharray:none;stroke-opacity:1"
         d="m 91.17918,186.47906 -2.75919,-4.37645 -4.18594,-3.23458 -3.23457,-3.32972 -2.18811,-3.32972 -5.61295,-2.09297"
         id="path51894" />
      <path
         style="fill:none;stroke:#ffffff;stroke-width:0.54737443;stroke-linecap:butt;stroke-linejoin:miter;stroke-miterlimit:4;stroke-dasharray:none;stroke-opacity:1"
         d="m 97.26754,187.52509 -3.2346,-4.56627 -2.47349,-5.80322 -3.23459,-3.13945"
         id="path51896" />
      <path
         style="fill:none;stroke:#000000;stroke-width:0.54737443;stroke-linecap:butt;stroke-linejoin:miter;stroke-miterlimit:4;stroke-dasharray:none;stroke-opacity:1"
         d="m 71.91409,217.39764 3.61512,0.90378 c 3.28967,0.71684 6.45183,0.36181 9.75133,0.0476 1.17348,-0.62522 2.32564,-0.52324 3.61513,-0.52324"
         id="path51898" />
      <path
         style="fill:none;stroke:#000000;stroke-width:0.28965226px;stroke-linecap:round;stroke-linejoin:bevel;stroke-opacity:1;paint-order:stroke fill markers"
         d="m 72.67517,218.82467 5.18485,2.4735 3.75783,0.38054 2.90161,-0.42811 1.95027,-1.56972 1.33188,-0.90378"
         id="path51900" />
      <path
         style="fill:none;stroke:#000000;stroke-width:0.28965226px;stroke-linecap:round;stroke-linejoin:bevel;stroke-opacity:1;paint-order:stroke fill markers"
         d="m 73.24598,216.92197 4.75674,0.52324 1.85513,0.23784 1.76,-0.23784 1.95026,-0.1427 1.76,0.0476 1.66485,-0.19027"
         id="path51902" />
      <ellipse
         style="opacity:1;fill:#000000;fill-opacity:1;stroke:#000000;stroke-width:0.48955917;stroke-linecap:round;stroke-linejoin:bevel;stroke-miterlimit:4;stroke-dasharray:none;stroke-dashoffset:0;stroke-opacity:1;paint-order:stroke fill markers"
         id="path51904"
         cx="93.628616"
         cy="206.81389"
         rx="0.29052845"
         ry="0.24296102" />
      <path
         style="fill:#000000;stroke:#000000;stroke-width:0.28965226px;stroke-linecap:butt;stroke-linejoin:miter;stroke-opacity:1"
         d="m 74.95841,197.03878 -3.23459,-1.09405 -4.04323,-0.0951 -2.28323,0.23783 -1.99783,0.76108 -0.66595,0.80865 0.0475,0.57081 1.47459,-0.33297 2.66377,-0.19027 2.04541,-0.42811 2.56864,0.33297 2.56864,0.28541 z"
         id="path51906" />
      <path
         style="fill:#000000;stroke:#000000;stroke-width:0.28965226px;stroke-linecap:butt;stroke-linejoin:miter;stroke-opacity:1"
         d="m 83.18757,197.60959 1.42703,0.52324 2.0454,-0.19027 2.75891,-0.19027 2.1881,-0.52324 2.52107,0.61838 0.42811,0.23784 v -0.95135 l -3.28216,-1.18919 -2.42594,0.0476 -2.33079,0.57081 -2.37838,0.2854 z"
         id="path51908" />
      <path
         style="fill:none;stroke:#000000;stroke-width:0.28965226px;stroke-linecap:butt;stroke-linejoin:miter;stroke-opacity:1"
         d="m 74.43517,201.65282 c 0,0 -2.19824,-1.43788 -3.56756,-1.56972 -1.36932,-0.13185 -3.85296,1.33189 -3.85296,1.33189 0,0 2.09656,0.86535 2.99675,1.04648 0.90019,0.18113 1.57953,0.19396 2.3308,0.1427 0.75127,-0.0513 2.09297,-0.95135 2.09297,-0.95135 z"
         id="path51910" />
      <path
         style="fill:none;stroke:#000000;stroke-width:0.28965226px;stroke-linecap:butt;stroke-linejoin:miter;stroke-opacity:1"
         d="m 84.51946,202.36633 c 0,0 1.35588,-1.54669 2.37837,-1.85512 1.20881,-0.36464 2.49222,-0.14218 3.71027,0.19026 0.96609,0.26368 2.80647,1.47459 2.80647,1.47459 0,0 -2.30024,0.64958 -3.32972,0.76108 -1.02475,0.111 -1.77634,-0.0595 -2.80647,-0.0951 -0.93829,-0.0325 -2.75892,-0.47567 -2.75892,-0.47567 z"
         id="path51912" />
      <path
         style="opacity:1;fill:#000000;fill-opacity:1;stroke:#000000;stroke-width:0.46420115;stroke-linecap:round;stroke-linejoin:bevel;stroke-miterlimit:4;stroke-dasharray:none;stroke-dashoffset:0;stroke-opacity:1;paint-order:stroke fill markers"
         d="m 70.5986,200.07631 c -0.27905,0.0104 -0.58922,0.07 -0.90686,0.15841 a 1.4923931,1.3259071 0 0 0 -0.19744,0.65681 1.4923931,1.3259071 0 0 0 1.49239,1.32606 1.4923931,1.3259071 0 0 0 1.49238,-1.32606 1.4923931,1.3259071 0 0 0 -0.047,-0.32473 c -0.53837,-0.23904 -1.09852,-0.43886 -1.56423,-0.4837 -0.0856,-0.008 -0.17588,-0.0103 -0.26928,-0.007 z"
         id="path51914" />
      <path
         style="opacity:1;fill:#000000;fill-opacity:1;stroke:#000000;stroke-width:0.46420115;stroke-linecap:round;stroke-linejoin:bevel;stroke-miterlimit:4;stroke-dasharray:none;stroke-dashoffset:0;stroke-opacity:1;paint-order:stroke fill markers"
         d="m 88.2821,200.32354 c -0.36161,-0.003 -0.72101,0.0351 -1.07545,0.11314 a 1.4923931,1.3259071 0 0 0 -0.25514,0.74054 1.4923931,1.3259071 0 0 0 1.49238,1.32606 1.4923931,1.3259071 0 0 0 1.49239,-1.32606 1.4923931,1.3259071 0 0 0 -0.2195,-0.68962 c -0.47635,-0.0965 -0.95695,-0.16077 -1.43468,-0.16406 z"
         id="ellipse51916" />
      <path
         style="fill:none;stroke:#000000;stroke-width:0.28965226px;stroke-linecap:butt;stroke-linejoin:miter;stroke-opacity:1"
         d="m 75.91878,213.14239 c 2.72505,-1.05614 4.06661,2.51217 6.8616,-0.0673 1.41314,0.28141 1.99599,0.10267 3.09444,-0.67271 1.6165,-1.31263 0.0196,-3.15489 -0.80725,-4.1035"
         id="path51924" />
      <path
         style="fill:none;stroke:#000000;stroke-width:0.28965226px;stroke-linecap:butt;stroke-linejoin:miter;stroke-opacity:1"
         d="m 76.52422,201.84094 c 0.78482,2.20479 0.55585,4.03077 0.20182,6.25616"
         id="path51926" />
      <path
         style="fill:none;stroke:#000000;stroke-width:0.29010841;stroke-linecap:butt;stroke-linejoin:miter;stroke-miterlimit:4;stroke-dasharray:none;stroke-opacity:1"
         d="m 86.74934,204.46449 3.29625,0.60544 3.02717,-0.73998"
         id="path51928" />
      <path
         style="fill:none;stroke:#000000;stroke-width:0.29010841;stroke-linecap:butt;stroke-linejoin:miter;stroke-miterlimit:4;stroke-dasharray:none;stroke-opacity:1"
         d="m 67.84633,204.53176 3.09444,0.26909 3.02717,-1.00906"
         id="path51930" />
      <path
         style="fill:none;stroke:#000000;stroke-width:0.60000002;stroke-linecap:butt;stroke-linejoin:miter;stroke-miterlimit:4;stroke-dasharray:none;stroke-opacity:1"
         d="m 97.40758,239.64269 c 1.50506,5.68281 2.63301,7.60488 7.69615,7.25291"
         id="path52041" />
      <g
         id="g52053"
         transform="translate(240.96727,40.383097)">
        <path
           id="path52043"
           d="m -137.20598,162.61815 c -3.01959,-0.62184 -2.61978,2.04983 -3.84396,5.25603"
           style="fill:none;stroke:#000000;stroke-width:0.40000001;stroke-linecap:round;stroke-linejoin:miter;stroke-miterlimit:4;stroke-dasharray:none;stroke-opacity:1;paint-order:stroke fill markers" />
        <path
           id="path52045"
           d="m -140.34391,165.59918 c 2.81524,-2.07237 1.81734,1.55646 0.86293,3.29483"
           style="fill:none;stroke:#000000;stroke-width:0.40000001;stroke-linecap:round;stroke-linejoin:miter;stroke-miterlimit:4;stroke-dasharray:none;stroke-opacity:1;paint-order:stroke fill markers" />
      </g>
      <path
         style="fill:none;stroke:#000000;stroke-width:0.26458332px;stroke-linecap:butt;stroke-linejoin:miter;stroke-opacity:1"
         d="m 56.13694,200.9792 c 0.50107,-1.87716 1.47547,1.66463 3.32828,4.27129"
         id="path52055" />
      <path
         style="fill:none;stroke:#000000;stroke-width:1.5;stroke-linecap:round;stroke-linejoin:miter;stroke-miterlimit:4;stroke-dasharray:none;stroke-opacity:1;paint-order:stroke fill markers"
         d="m 54.58375,279.47107 c 0,0 -3.99632,1.79874 -3.66111,3.43922 0.55979,2.73955 7.5807,0.10409 7.87693,2.88451 0.17609,1.65273 -3.90536,1.02979 -4.21582,2.66262 -0.35094,1.84569 3.32828,4.54865 3.32828,4.54865"
         id="path52059" />
    </g>
  </g>
</svg>
