<?xml version="1.0" encoding="UTF-8" standalone="no"?>
<svg
   xmlns:dc="http://purl.org/dc/elements/1.1/"
   xmlns:cc="http://creativecommons.org/ns#"
   xmlns:rdf="http://www.w3.org/1999/02/22-rdf-syntax-ns#"
   xmlns:svg="http://www.w3.org/2000/svg"
   xmlns="http://www.w3.org/2000/svg"
   xmlns:xlink="http://www.w3.org/1999/xlink"
   id="svg897"
   version="1.1"
   viewBox="0 0 400 400"
   height="400mm"
   width="400mm">
  <metadata
     id="metadata87">
    <rdf:RDF>
      <cc:Work
         rdf:about="">
        <dc:format>image/svg+xml</dc:format>
        <dc:type
           rdf:resource="http://purl.org/dc/dcmitype/StillImage" />
        <dc:title></dc:title>
      </cc:Work>
    </rdf:RDF>
  </metadata>
  <defs
     id="defs85" />
  <g
     transform="translate(0,103)"
     id="layer1">
    <g
       transform="translate(456.64256,-46.35326)"
       id="g38104">
      <ellipse
         style="opacity:1;fill:#ffffff;fill-opacity:1;stroke:#000000;stroke-width:10;stroke-linecap:round;stroke-miterlimit:4;stroke-dasharray:none;stroke-dashoffset:0;stroke-opacity:1;paint-order:stroke fill markers"
         id="path37822"
         cx="158.54768"
         cy="240.9705"
         rx="159.77307"
         ry="159.77306"
         transform="rotate(90)" />
      <path
         style="fill:#ffffff;stroke:#000000;stroke-width:0.80000001;stroke-linecap:butt;stroke-linejoin:miter;stroke-miterlimit:4;stroke-dasharray:none;stroke-opacity:1"
         d="m -160.08801,122.53292 -6.79674,9.83739 -10.1951,8.04877 -5.187,-1.07317 -3.2195,-2.14634 -5.5447,-0.53658 -12.8781,0.71544 -2.6829,5.72358 3.935,1.43089 6.2601,1.60975 8.0488,4.82927 11.9837,4.82926 3.935,7.86991 12.34144,2.86179 8.94307,8.76422 8.22765,7.51219 13.23575,-9.12195 z"
         id="path1850" />
      <text
         id="text59918"
         style="font-style:normal;font-variant:normal;font-weight:normal;font-stretch:normal;font-size:52.77589035px;line-height:1.25;font-family:aakar;-inkscape-font-specification:aakar;letter-spacing:0px;word-spacing:0px;fill:#000000;fill-opacity:1;stroke:none;stroke-width:1.97909606"
         xml:space="preserve"
         transform="rotate(90,-239.85465,154.65532)"><textPath
           xlink:href="#path37822"
           id="textPath38026"><tspan
   id="tspan59914"
   style="font-style:normal;font-variant:normal;font-weight:normal;font-stretch:normal;font-family:Ubuntu;-inkscape-font-specification:Ubuntu;fill:#000000;stroke-width:1.97909606" /><tspan
   id="tspan59916"
   style="font-style:normal;font-variant:normal;font-weight:normal;font-stretch:normal;font-family:Ubuntu;-inkscape-font-specification:Ubuntu;fill:#000000;stroke-width:1.97909606">Eymard: Multitask </tspan></textPath></text>
      <path
         style="fill:#ffffff;stroke:#000000;stroke-width:2.64566922;stroke-linecap:butt;stroke-linejoin:miter;stroke-miterlimit:4;stroke-dasharray:none;stroke-opacity:1"
         d="m -950.13281,629.00781 -150.96289,23.09766 -1.1973,80.04101 -35.084,24.11914 -69.3007,27.32618 -63.5879,25.21679 -39.4668,35.08203 -27.4102,29.60157 -21.9258,92.09375 -5.8476,30.49218 c 0.025,0.0282 0.05,0.0558 0.074,0.084 11.8243,13.55688 24.2006,26.50888 37.0684,38.85348 a 603.86673,603.86667 0 0 0 13.2949,12.3848 c 9.4071,8.496 19.0633,16.6689 28.9433,24.5234 a 603.86673,603.86667 0 0 0 21.1426,16.0723 c 8.233,5.9734 16.6111,11.7251 25.1172,17.2637 a 603.86673,603.86667 0 0 0 28.127,17.2441 c 7.0295,4.0485 14.1365,7.9533 21.3183,11.7129 a 603.86673,603.86667 0 0 0 34.9805,16.9004 c 5.7421,2.5501 11.5219,5.0145 17.3418,7.3848 a 603.86673,603.86667 0 0 0 41.5293,15.1582 c 4.3768,1.4191 8.7705,2.7878 13.1816,4.1074 a 603.86673,603.86667 0 0 0 47.543,12.1406 c 2.9214,0.6207 5.8486,1.2211 8.7812,1.7988 a 603.86673,603.86667 0 0 0 53.11528,8.0293 c 1.48038,0.1567 2.96096,0.3093 4.44336,0.4551 a 603.86673,603.86667 0 0 0 58.16015,2.9102 603.86673,603.86667 0 0 0 40.50391,-1.4336 c 1.32313,-0.091 2.64505,-0.1913 3.9668,-0.291 a 603.86673,603.86667 0 0 0 54.46093,-6.6114 c 2.55129,-0.4282 5.09894,-0.8734 7.64258,-1.334 a 603.86673,603.86667 0 0 0 49.15039,-11.0312 c 4.00404,-1.0764 7.99438,-2.1957 11.97266,-3.3535 a 603.86673,603.86667 0 0 0 43.02344,-14.2949 c 5.5109,-2.0636 10.99272,-4.2008 16.43945,-6.4239 a 603.86673,603.86667 0 0 0 36.69141,-16.4199 c 6.92927,-3.3819 13.79545,-6.8982 20.59375,-10.5449 a 603.86673,603.86667 0 0 0 29.59375,-16.9766 c 8.45561,-5.1709 16.79017,-10.5528 24.99609,-16.1445 a 603.86673,603.86667 0 0 0 22.54102,-16.1192 c 9.79641,-7.3559 19.38177,-15.0292 28.74804,-23 a 603.86673,603.86667 0 0 0 14.52344,-12.7597 c 13.13554,-11.9245 25.7935,-24.4692 37.92578,-37.6172 a 603.86673,603.86667 0 0 0 0.36133,-0.3867 603.86673,603.86667 0 0 0 124.07226,-204.12697 l -108.85351,-59.53125 -118.39844,-6.05859 -84.41797,-21.92774 -74.30273,-4.73437 -14.6875,-59.07813 z"
         id="path1790"
         transform="scale(0.26458333)" />
      <path
         style="fill:#ffffff;stroke:#000000;stroke-width:0.89999998;stroke-linecap:butt;stroke-linejoin:miter;stroke-miterlimit:4;stroke-dasharray:none;stroke-opacity:1"
         d="m -281.85346,118.04382 -4.00905,-8.8199 -4.54358,-0.26727 c -2.37905,5.401 -1.17303,7.5666 -0.26727,13.36348 l 1.46327,10.69078 c 0.914,5.07788 3.0131,8.21875 8.58505,11.85435 l 3.58243,-0.8963 z"
         id="path1149" />
      <path
         style="fill:#ffffff;stroke:#000000;stroke-width:0.89999998;stroke-linecap:butt;stroke-linejoin:miter;stroke-miterlimit:4;stroke-dasharray:none;stroke-opacity:1"
         d="m -202.65705,144.5329 c 3.71504,-1.81431 2.64698,-2.12785 3.2128,-6.3311 1.78648,-6.9946 2.40225,-6.3325 -0.18899,-12.37872 l 1.51191,-6.89807 c 0.41761,-3.27259 2.81183,-8.71724 -1.22843,-7.65402 l -1.98437,1.79539 c 0,0 -2.55134,3.87425 -2.45684,4.34673 0.0945,0.47247 0.56696,9.4494 0.56696,9.4494 l -1.70089,9.63839 z"
         id="path1151" />
      <path
         style="fill:#ffffff;stroke:#000000;stroke-width:0.80000001;stroke-linecap:butt;stroke-linejoin:miter;stroke-miterlimit:4;stroke-dasharray:none;stroke-opacity:1"
         d="m -284.92843,204.57838 31.05561,17.25065 -2.97949,11.8946 5.72272,17.98616 8.26871,-17.60686 1.98695,-12.74992 15.23934,-0.37926 32.61593,-32.59562 -13.04017,-8.50446 -6.23661,-0.94494 v -11.71726 l -34.86008,12.33275 -32.02525,-26.22083 3.20457,5.62113 c -0.44843,23.43647 3.99606,23.07206 -4.92192,27.92171 l -10.75037,6.84754 z"
         id="path1153" />
      <path
         style="fill:#ffffff;stroke:#000000;stroke-width:0.80000001;stroke-linecap:butt;stroke-linejoin:miter;stroke-miterlimit:4;stroke-dasharray:none;stroke-opacity:1"
         d="m -206.75073,86.506012 0.26727,13.898018 2.93997,10.15624 2.93996,11.22532 -0.80181,14.96709 -1.33634,19.10977 -10.15625,17.23889 -15.50163,10.15624 -11.49259,0.80181 -16.03617,-3.74177 -16.57071,-15.50164 -6.68174,-11.49259 -4.81085,-21.64883 1.06908,-18.17433 1.06908,-20.312478 3.4745,-26.192413 33.14142,-8.018087 33.14142,4.810852 7.75082,17.105249 z"
         id="path1147" />
      <path
         style="fill:none;stroke:#000000;stroke-width:1;stroke-linecap:butt;stroke-linejoin:miter;stroke-miterlimit:4;stroke-dasharray:none;stroke-opacity:1"
         d="m -212.29544,178.92873 -0.80294,11.47831"
         id="path1155" />
      <path
         style="fill:#000000;stroke:#000000;stroke-width:0.26458332px;stroke-linecap:butt;stroke-linejoin:miter;stroke-opacity:1"
         d="m -206.75073,86.506012 -1.33634,7.349914 1.60362,6.548104 2.93996,15.23436 3.60814,-0.13363 0.5856,-4.23377 2.488,-13.406021 -1.33635,-11.49259 -3.0736,-14.298919 -5.74629,-13.898017 -8.8199,-6.280833 -9.2208,0.267269 1.73725,11.759859 3.0736,8.418991 5.21176,3.608139 4.27631,1.202713 c 3.53135,2.051517 2.54671,6.03306 4.00904,9.354431 z"
         id="path1159" />
      <path
         style="fill:#000000;stroke:#000000;stroke-width:0.26458332px;stroke-linecap:butt;stroke-linejoin:miter;stroke-opacity:1"
         d="m -222.87877,48.14897 8.31547,11.339288 2.46719,4.299846 1.31257,10.063247 -11.90625,0.944941 -15.68601,4.913691 -9.07143,0.188987 -8.12648,-1.700893 -4.9137,-2.267857 -9.26041,-1.322917 -5.29167,4.346726 0.18899,4.913691 v 6.992559 l -0.56696,7.9375 -4.53572,6.236611 -0.94494,9.26041 -0.95534,3.74902 v 0 0 l -3.95835,2.86556 -0.0507,-11.68546 -0.70525,-5.13447 -3.40179,-7.559526 -0.37797,-20.788691 3.77976,-12.851191 4.91369,-5.480655 -6.4256,-2.645834 6.23661,0.755955 -3.40179,-4.15774 6.4256,1.700893 -3.02381,-5.669643 6.61458,1.889882 -2.83482,-4.535715 9.07143,1.511906 -3.96875,-4.157739 h 4.91369 l 5.10268,2.078868 0.37798,-3.779761 -4.91369,-0.94494 -0.37798,-0.566965 7.74851,-0.377976 5.48066,4.535715 -0.37798,-4.157739 -2.83482,-2.267857 6.23661,2.07887 4.91369,4.157736 -0.37798,-3.212795 -3.59077,-3.590775 -2.83483,-1.133929 7.74852,0.944941 5.10267,5.291666 -1.32291,-3.779762 2.45684,2.456845 1.7009,3.023809 -0.18899,-2.456844 -0.56697,-0.94494 2.64584,2.078868 2.26785,2.645833 1.51191,-3.023809 3.40178,2.834823 0.37798,-1.133931 4.34673,4.346726 0.75595,-3.023809 z"
         id="path1157" />
      <path
         style="fill:#000000;stroke:#000000;stroke-width:0.26458332px;stroke-linecap:butt;stroke-linejoin:miter;stroke-opacity:1"
         d="m -246.78577,109.47561 0.37798,-1.79539 -4.06325,-2.64583 -4.91369,-0.28349 -6.52009,0.37798 -4.7247,0.66146 -5.38616,2.26786 -1.5119,2.07887 6.70907,-1.7009 7.74851,-0.18899 6.4256,0.56697 3.59078,0.75595 z"
         id="path1161" />
      <path
         style="fill:#000000;stroke:#000000;stroke-width:0.26458332px;stroke-linecap:butt;stroke-linejoin:miter;stroke-opacity:1"
         d="m -231.09976,111.45998 7.46503,-1.70089 8.12649,-0.56696 4.25223,1.03943 2.36236,1.32292 1.22842,1.5119 1.98437,-0.56696 -1.03943,-3.77977 -3.77976,-2.36235 -2.74033,-2.07887 -6.52009,1.13393 -4.8192,0.94494 -3.40178,1.79539 -2.17337,0.85045 -1.70089,0.94494 z"
         id="path1163" />
      <path
         style="fill:none;stroke:#000000;stroke-width:0.5;stroke-linecap:butt;stroke-linejoin:miter;stroke-miterlimit:4;stroke-dasharray:none;stroke-opacity:1"
         d="m -251.69946,113.91683 c -4.2398,-0.98877 -6.13635,-0.80215 -10.20536,-0.0945 -1.57282,0.76029 -3.14873,1.51414 -4.7247,2.26786 l 6.4256,1.88988 5.76413,0.56697 c 6.13949,-1.06312 6.05856,-1.68082 2.74033,-4.63021 z"
         id="path1165" />
      <path
         style="fill:none;stroke:#000000;stroke-width:0.5;stroke-linecap:butt;stroke-linejoin:miter;stroke-miterlimit:4;stroke-dasharray:none;stroke-opacity:1"
         d="m -229.20988,118.07456 c 2.6641,-5.72268 7.75383,-5.68818 14.07962,-1.79538 l 0.94494,1.13393 -3.11831,1.22842 -4.91369,0.18899 -5.76413,-0.18899 z"
         id="path1167" />
      <path
         style="opacity:1;fill:#000000;fill-opacity:1;stroke:#000000;stroke-width:0.2;stroke-linecap:round;stroke-miterlimit:4;stroke-dasharray:none;stroke-dashoffset:0;stroke-opacity:1;paint-order:stroke fill markers"
         d="m -256.86614,113.23355 c -1.20822,0.009 -2.41645,0.15777 -3.88503,0.39584 a 3.5204243,3.2841895 0 0 0 -0.18552,1.04335 3.5204243,3.2841895 0 0 0 3.5202,3.28404 3.5204243,3.2841895 0 0 0 3.52071,-3.28404 3.5204243,3.2841895 0 0 0 -0.26096,-1.23507 c -0.97798,-0.14567 -1.84907,-0.21067 -2.7094,-0.20412 z"
         id="path1169" />
      <path
         style="opacity:1;fill:#000000;fill-opacity:1;stroke:#000000;stroke-width:0.21182328;stroke-linecap:round;stroke-miterlimit:4;stroke-dasharray:none;stroke-dashoffset:0;stroke-opacity:1;paint-order:stroke fill markers"
         d="m -223.08836,113.54361 c -0.68116,0.0197 -1.32646,0.13476 -1.93528,0.34262 a 3.8452417,3.372772 0 0 0 -0.37724,1.44797 3.8452417,3.372772 0 0 0 3.84525,3.37292 3.8452417,3.372772 0 0 0 3.84524,-3.37292 3.8452417,3.372772 0 0 0 -0.0429,-0.47491 c -1.94157,-0.89916 -3.73421,-1.36189 -5.33508,-1.31568 z"
         id="ellipse1714" />
      <path
         style="fill:none;stroke:#000000;stroke-width:0.80000001;stroke-linecap:butt;stroke-linejoin:miter;stroke-miterlimit:4;stroke-dasharray:none;stroke-opacity:1"
         d="m -256.93058,155.52837 6.74855,2.27179 8.61945,0.73499 3.0736,-0.4009 5.94674,0.4009 3.60814,-0.66818 4.40995,-1.06907 2.80633,-0.53454 2.07134,-1.20272"
         id="path1741" />
      <path
         style="fill:none;stroke:#000000;stroke-width:0.40000001;stroke-linecap:butt;stroke-linejoin:miter;stroke-miterlimit:4;stroke-dasharray:none;stroke-opacity:1"
         d="m -256.93058,155.52837 c 3.364,-0.0636 6.68856,-0.52962 10.02261,-0.93545 2.84094,-0.98822 5.36816,-0.0856 8.21283,0.50763 4.69895,-0.81569 5.23921,-2.05237 9.96149,-0.30717 2.1302,0.40804 4.26713,0.17242 6.41447,0.0668"
         id="path1743" />
      <path
         style="fill:#000000;stroke:#000000;stroke-width:0.80000001;stroke-linecap:butt;stroke-linejoin:miter;stroke-miterlimit:4;stroke-dasharray:none;stroke-opacity:1"
         d="m -242.7653,141.63035 -2.3386,-1.46998 -2.2718,-0.60136 -1.26952,0.13364 -0.53455,0.66817 1.06908,1.33635 2.80633,0.73499 1.33635,-0.33409 z"
         id="path1749" />
      <path
         style="fill:#000000;stroke:#000000;stroke-width:0.80000001;stroke-linecap:butt;stroke-linejoin:miter;stroke-miterlimit:4;stroke-dasharray:none;stroke-opacity:1"
         d="m -232.47542,142.83306 2.13816,-2.13815 2.3386,-0.46772 1.80407,0.60135 0.13364,1.06908 -2.27179,0.93544 -2.47224,-0.0668 z"
         id="path1751" />
      <path
         style="fill:none;stroke:#000000;stroke-width:0.80000001;stroke-linecap:butt;stroke-linejoin:miter;stroke-miterlimit:4;stroke-dasharray:none;stroke-opacity:1"
         d="m -249.76233,138.95775 2.38663,0.60126 3.75548,1.33587 0.85492,0.73547 2.40513,1.76862 3.07105,0.14174 2.64584,0.14174 2.16786,-0.84939 2.13816,-2.13815 v 0"
         id="path1753" />
      <path
         style="fill:none;stroke:#000000;stroke-width:0.80000001;stroke-linecap:butt;stroke-linejoin:miter;stroke-miterlimit:4;stroke-dasharray:none;stroke-opacity:1"
         d="m -247.44251,133.67908 c -0.26727,0.13364 -3.00678,1.46999 -3.00678,1.46999 l -1.40317,3.00678"
         id="path1757" />
      <path
         style="fill:none;stroke:#000000;stroke-width:0.80000001;stroke-linecap:butt;stroke-linejoin:miter;stroke-miterlimit:4;stroke-dasharray:none;stroke-opacity:1"
         d="m -223.65552,140.36082 1.13589,-1.87089 -0.53454,-2.47224 -3.00678,-1.87088"
         id="path1759" />
      <path
         style="fill:none;stroke:#000000;stroke-width:0.60000002;stroke-linecap:butt;stroke-linejoin:miter;stroke-miterlimit:4;stroke-dasharray:none;stroke-opacity:1"
         d="m -222.51963,138.48993 3.40769,4.07586 2.07134,4.67722"
         id="path1761" />
      <path
         style="fill:none;stroke:#000000;stroke-width:0.60000002;stroke-linecap:butt;stroke-linejoin:miter;stroke-miterlimit:4;stroke-dasharray:none;stroke-opacity:1"
         d="m -255.12651,139.8931 -3.60814,1.9377 -5.14494,6.1472"
         id="path1763" />
      <path
         style="fill:none;stroke:#000000;stroke-width:0.5;stroke-linecap:butt;stroke-linejoin:miter;stroke-miterlimit:4;stroke-dasharray:none;stroke-opacity:1"
         d="m -234.40705,109.09763 -2.26786,5.38616 -0.66145,4.53572 2.17336,9.63839 0.56696,2.92931"
         id="path1765" />
      <path
         style="fill:#ffffff;stroke:#000000;stroke-width:0.80000001;stroke-linecap:butt;stroke-linejoin:miter;stroke-miterlimit:4;stroke-dasharray:none;stroke-opacity:1"
         d="m -291.33181,172.53603 c 8.77615,13.53057 19.9109,24.66813 30.767,36.51018 -10.23825,3.32319 -14.21338,8.86275 -20.10111,17.22952 -8.92846,-8.0365 -13.96311,-16.22104 -20.26494,-26.18033 l -3.93843,-7.86849 z"
         id="path1778" />
      <path
         style="fill:none;stroke:#000000;stroke-width:0.80000001;stroke-linecap:butt;stroke-linejoin:miter;stroke-miterlimit:4;stroke-dasharray:none;stroke-opacity:1"
         d="m -260.56481,209.04621 6.69199,12.78282"
         id="path1780" />
      <path
         style="fill:#ffffff;stroke:#000000;stroke-width:0.80000001;stroke-linecap:butt;stroke-linejoin:miter;stroke-miterlimit:4;stroke-dasharray:none;stroke-opacity:1"
         d="m -220.77282,208.63598 c 5.74422,5.84072 8.56017,10.74854 9.84545,18.4602 12.10953,-10.65552 19.36318,-22.79319 26.25451,-36.9204 l -12.23215,-17.4286 -9.15382,7.12649 v 0"
         id="path1784" />
      <path
         style="fill:none;stroke:#000000;stroke-width:0.80000001;stroke-linecap:butt;stroke-linejoin:miter;stroke-miterlimit:4;stroke-dasharray:none;stroke-opacity:1"
         d="m -206.05883,179.87367 c 5.59187,13.84274 -5.45645,19.06394 -14.71399,28.76231 l -14.76816,2.05114 -5.33295,10.66589"
         id="path1782" />
      <path
         style="fill:none;stroke:#000000;stroke-width:0.80000001;stroke-linecap:butt;stroke-linejoin:miter;stroke-miterlimit:4;stroke-dasharray:none;stroke-opacity:1"
         d="m -251.12959,251.70979 -1.23068,15.17839 2.46136,10.25567"
         id="path1786" />
      <path
         id="path1788"
         d="m -256.46907,156.6565 6.28704,3.09224 8.61945,0.73499 3.0736,-0.4009 5.94674,0.4009 3.60814,-0.66818 4.40995,-1.06907 2.70377,-1.20116 2.22518,-1.20272"
         style="fill:none;stroke:#000000;stroke-width:0.40000001;stroke-linecap:butt;stroke-linejoin:miter;stroke-miterlimit:4;stroke-dasharray:none;stroke-opacity:1" />
      <path
         style="fill:#000000;stroke:#000000;stroke-width:0.80000001;stroke-linecap:butt;stroke-linejoin:miter;stroke-miterlimit:4;stroke-dasharray:none;stroke-opacity:1"
         d="m -195.14485,92.126438 -2.8618,-0.715446 1.0731,62.243848 c 0,0 3.2196,4.29268 3.5773,2.86179 0.3577,-1.4309 3.2195,-14.66666 3.2195,-14.66666 z"
         id="path1846" />
      <path
         style="fill:#ffffff;stroke:#000000;stroke-width:0.60000002;stroke-linecap:butt;stroke-linejoin:miter;stroke-miterlimit:4;stroke-dasharray:none;stroke-opacity:1"
         d="m -117.87665,163.13451 -23.60975,11.80487 -5.54472,1.25203 -5.54471,-12.52032 -7.69104,-7.15446 -1.78861,-15.20324 -0.71546,-13.0569 -3.93501,-6.61788 -9.1219,-5.90244 c 0,0 -8.2276,2.14634 -9.1219,2.14634 -0.8943,0 -9.4797,2.50407 -9.4797,2.50407 l -5.9024,-0.35773 0.5365,-4.6504 2.683,-3.04065 -1.9675,2.68293 -7.5122,-1.60976 -0.7154,-3.21951 9.1219,-4.6504 -7.8699,3.7561 1.252,-5.90244 4.8293,-3.21951 -3.7561,-1.252031 1.4309,-3.577233 7.1545,-3.219508 16.6341,1.788615 13.05688,5.365851 12.16261,11.447146 9.30079,8.04877 4.29268,18.78048 6.43903,13.59348 z"
         id="path1852" />
      <path
         style="fill:none;stroke:#000000;stroke-width:0.80000001;stroke-linecap:butt;stroke-linejoin:miter;stroke-miterlimit:4;stroke-dasharray:none;stroke-opacity:1"
         d="m -197.11235,112.3378 9.3008,-3.04064 13.4146,0.53658 6.9756,2.68293"
         id="path1854" />
      <path
         style="fill:none;stroke:#000000;stroke-width:0.80000001;stroke-linecap:butt;stroke-linejoin:miter;stroke-miterlimit:4;stroke-dasharray:none;stroke-opacity:1"
         d="m -198.18555,105.54106 11.626,-3.75609 11.8049,-0.17887 6.9756,3.39838"
         id="path1856" />
      <path
         style="fill:none;stroke:#000000;stroke-width:0.80000001;stroke-linecap:butt;stroke-linejoin:miter;stroke-miterlimit:4;stroke-dasharray:none;stroke-opacity:1"
         d="m -199.97415,100.17521 8.9431,-2.861785 7.691,-0.715447 6.439,0.715447"
         id="path1858" />
      <path
         style="fill:#ffffff;stroke:#000000;stroke-width:3.02362204;stroke-linecap:butt;stroke-linejoin:miter;stroke-miterlimit:4;stroke-dasharray:none;stroke-opacity:1"
         d="m -404.95703,573.98242 -25.68945,6.75977 -62.19336,27.04101 -109.51368,71.65821 35.23243,29.1914 36.88281,15.13672 159.29297,144.55078 a 603.86673,603.86667 0 0 0 59.29297,-197.23828 l -39.22461,-40.31445 z"
         transform="scale(0.26458333)"
         id="path1860" />
      <ellipse
         style="opacity:1;fill:#ffffff;fill-opacity:1;stroke:#000000;stroke-width:0.60000002;stroke-linecap:round;stroke-miterlimit:4;stroke-dasharray:none;stroke-dashoffset:0;stroke-opacity:1;paint-order:stroke fill markers"
         id="path1934"
         cx="-319.11407"
         cy="212.35919"
         rx="37.739807"
         ry="11.447145" />
      <path
         style="fill:#000100;stroke-width:0.8515588"
         d="m -1210.8125,744.7832 c -78.7981,0 -163.6035,17.15635 -163.6035,54.82422 v 3.30274 30.76757 c -6.5982,-1.34857 -13.427,-2.09375 -20.4121,-2.09375 -23.6128,0 -45.42,8.11416 -62.9531,21.7754 a 603.86673,603.86667 0 0 0 19.9667,39.1582 c 10.7875,-13.29553 26.0613,-21.61914 42.9864,-21.61914 7.1941,0 14.0183,1.72364 20.4121,4.47461 v 109.89062 a 603.86673,603.86667 0 0 0 184.6582,148.99023 c 72.1121,-2.7982 142.5312,-20.0794 142.5312,-54.3945 v -276.94924 -3.30274 c 0,-37.66787 -84.8043,-54.82501 -163.5859,-54.82422 z m 0,26.21094 c 86.5268,0 133.2071,20.31057 133.2071,28.61328 0,8.29954 -46.6803,28.59961 -133.2071,28.59961 -86.5423,0 -133.2207,-20.30007 -133.2207,-28.59961 0,-8.30271 46.6784,-28.61328 133.2207,-28.61328 z"
         transform="scale(0.26458333)"
         id="cup" />
      <g
         id="layer1-7"
         transform="matrix(0.33908165,0,0,0.33908165,-354.67519,-69.700116)"
         style="fill:#ffffff">
        <circle
           r="20"
           cy="969.76807"
           cx="39.465446"
           id="circle32770"
           style="opacity:1;fill:#ffffff;fill-opacity:1;stroke:none;stroke-width:5.1748023;stroke-linecap:round;stroke-miterlimit:4;stroke-dasharray:none;stroke-dashoffset:0;stroke-opacity:1;paint-order:stroke fill markers" />
        <circle
           style="opacity:1;fill:#ffffff;fill-opacity:1;stroke:none;stroke-width:5.1748023;stroke-linecap:round;stroke-miterlimit:4;stroke-dasharray:none;stroke-dashoffset:0;stroke-opacity:1;paint-order:stroke fill markers"
           id="circle32772"
           cx="85.465446"
           cy="967.76807"
           r="20" />
        <circle
           style="opacity:1;fill:#ffffff;fill-opacity:1;stroke:none;stroke-width:5.1748023;stroke-linecap:round;stroke-miterlimit:4;stroke-dasharray:none;stroke-dashoffset:0;stroke-opacity:1;paint-order:stroke fill markers"
           id="circle32774"
           cx="40.265926"
           cy="1011.6598"
           r="20" />
        <path
           style="fill:#ffffff;fill-opacity:1;fill-rule:evenodd;stroke:none;stroke-width:0.41827282"
           d="M 62.836007,927.07118 C 28.150358,927.07118 0,955.13724 0,989.71769 c 0,34.58051 28.150353,62.64461 62.836007,62.64451 13.765265,0 26.491951,-4.4324 36.847702,-11.9257 h 66.000071 c 6.25785,0 11.68408,-3.3873 14.57033,-8.4239 -0.88127,-0.027 -1.61389,-0.4849 -2.19336,-1.3906 l -4.28321,-6.6738 h -20.47268 l -4.30275,6.6738 c -0.45154,0.7312 -0.9543,1.0977 -1.50781,1.0977 -0.29133,0 -0.64098,-0.092 -1.04883,-0.2793 -0.88854,-0.4201 -1.33398,-0.9894 -1.33398,-1.7051 0,-0.1555 0.0435,-0.3112 0.13086,-0.4668 l 15.33791,-25.0391 c 0.58263,-0.949 1.5743,-1.4613 2.97266,-1.5391 1.1507,-0.062 2.00311,0.2787 2.55664,1.0254 0.0437,0.1245 0.12368,0.2959 0.24023,0.5137 l 15.59377,23.5723 c 0.32944,-1.312 0.52344,-2.6791 0.52344,-4.0957 v -17.1602 c 0,-9.26911 -7.4859,-16.73241 -16.78322,-16.73241 h -40.01372 c 5e-5,-0.0321 0.002,-0.0636 0.002,-0.0957 0,-34.58045 -28.150363,-62.64651 -62.836013,-62.64651 z m 0,8.35352 c 30.060905,0 54.459043,24.32326 54.459043,54.29299 0,0.0321 -0.002,0.0636 -0.002,0.0957 H 82.461028 c -9.29732,0 -16.781268,7.4633 -16.781268,16.73241 v 17.1602 c 0,9.2093 7.389738,16.6252 16.603538,16.7207 -6.042126,2.3067 -12.594624,3.584 -19.447291,3.584 -30.060896,0 -54.4570918,-24.3233 -54.4570918,-54.29301 0,-29.96973 24.3961958,-54.29299 54.4570918,-54.29299 z m 105.851673,57.95314 c 0.39326,0 0.75677,0.13993 1.09181,0.41992 0.34956,0.2645 0.52537,0.5758 0.52539,0.9336 -2e-5,0.2023 -0.0593,0.39728 -0.17578,0.58398 -0.11655,0.1711 -1.12898,1.27646 -3.03712,3.31446 -1.90819,2.0381 -2.96406,3.1414 -3.16797,3.3125 -0.3059,0.249 -0.63285,0.3731 -0.98242,0.373 -0.3933,10e-5 -0.74296,-0.1319 -1.04883,-0.3964 -0.29134,-0.2644 -0.43752,-0.5758 -0.4375,-0.9336 -2e-5,-0.3112 0.13038,-0.6066 0.39258,-0.8867 l 6.0957,-6.41607 c 0.18934,-0.2022 0.43822,-0.30469 0.74414,-0.30469 z m -81.431724,9.63676 c 1.136141,0 1.703112,0.6069 1.703132,1.8203 v 0.5605 c -2e-5,1.2291 -0.566991,1.8438 -1.703132,1.8438 -0.131111,0 -0.444221,-0.01 -0.939451,-0.023 h -1.246102 c -4.777707,0 -7.16603,0.9969 -7.16602,2.9882 v 1.9825 c -10e-6,1.2446 0.996621,2.0544 2.992194,2.4277 0.801121,0.1401 2.229372,0.209 4.283206,0.209 h 6.488287 c 2.884064,0 5.331656,0.4295 7.341809,1.2851 2.825791,1.2135 4.238251,3.1267 4.238281,5.7403 v 2.5429 c -3e-5,1.5091 -0.22426,2.6992 -0.67578,3.5704 -1.23815,2.318 -4.894713,3.4765 -10.96876,3.4765 H 74.80086 c -1.121601,0 -1.681642,-0.6147 -1.681642,-1.8437 0,-0.8245 0.08,-1.3999 0.24024,-1.7266 0.247621,-0.4667 0.727651,-0.6991 1.441402,-0.6992 h 16.80276 c 4.530035,10e-5 6.794898,-0.8945 6.794928,-2.6836 v -2.4512 c -3e-5,-1.7735 -2.191793,-2.7212 -6.576177,-2.8457 -7.472439,-0.2334 -11.544835,-0.4126 -12.214866,-0.5371 -4.369845,-0.7934 -6.554687,-2.878 -6.554687,-6.2539 v -2.1484 c 0,-3.3915 1.718642,-5.5766 5.156256,-6.5567 1.587691,-0.4512 4.604205,-0.6777 9.046882,-0.6777 z m 21.957054,0 c 1.13615,0 1.70507,0.6069 1.70508,1.8203 v 24.7598 c -1e-5,1.229 -0.56893,1.8418 -1.70508,1.8418 -1.19443,0 -1.90757,-0.037 -2.14062,-0.1152 -0.67005,-0.2178 -1.00586,-0.7932 -1.00586,-1.7266 v -24.7598 c 0,-0.9334 0.33581,-1.5107 1.00586,-1.7285 0.23305,-0.062 0.94619,-0.092 2.14062,-0.092 z m 16.08205,0 h 17.36916 c 0.71371,0 1.1957,0.2245 1.44336,0.6757 0.17476,0.3111 0.26168,0.8806 0.26172,1.7051 -4e-5,1.2291 -0.56896,1.8418 -1.70508,1.8418 h -17.28127 c -4.19506,0 -6.29298,0.8945 -6.29297,2.6837 v 14.0723 c -1e-5,2.1158 2.32215,3.1738 6.96876,3.1738 h 16.49611 c 1.17982,0 1.77145,0.7073 1.77148,2.123 -3e-5,1.4313 -0.59166,2.1485 -1.77148,2.1485 h -16.49611 c -2.22863,0 -3.83075,-0.094 -4.80666,-0.2813 -1.04876,-0.1867 -2.16194,-0.6142 -3.34179,-1.2832 -1.29639,-0.7156 -2.22188,-1.4939 -2.77539,-2.334 -0.59721,-0.8867 -0.89649,-2.0374 -0.89649,-3.4531 v -14.1426 c 0,-1.7737 0.7724,-3.2966 2.31641,-4.5723 1.31094,-1.0579 2.86265,-1.7593 4.6543,-2.1016 0.94678,-0.1711 2.30886,-0.2558 4.08594,-0.2558 z m 38.25786,5.041 -7.40626,11.5977 h 14.76955 z"
           id="path18241" />
      </g>
      <g
         id="g37996"
         transform="translate(459.13338,56.317521)">
        <g
           id="g38000">
          <path
             style="fill:none;stroke:#000000;stroke-width:1;stroke-linecap:butt;stroke-linejoin:miter;stroke-miterlimit:4;stroke-dasharray:none;stroke-opacity:1"
             d="m -630.34782,206.69736 c -13.74869,-3.43644 -26.66222,-2.21249 -40.47178,-0.75885 -2.54251,14.096 -1.25954,27.30378 0.75885,41.23062 14.06414,6.39321 23.27435,6.69489 40.72472,0.5059 1.10147,-14.00177 0.16106,-27.09875 -1.01179,-40.97767 z"
             id="path37984" />
          <path
             style="fill:none;stroke:#000000;stroke-width:1;stroke-linecap:butt;stroke-linejoin:miter;stroke-miterlimit:4;stroke-dasharray:none;stroke-opacity:1"
             d="m -670.31369,214.28581 c 12.74237,-2.18936 24.39644,-1.02324 37.18343,-0.25294"
             id="path37986" />
        </g>
      </g>
      <g
         id="g38010"
         transform="translate(-2.2357706,5.634142)">
        <g
           id="g38004">
          <ellipse
             style="opacity:1;fill:#ffffff;fill-opacity:1;stroke:#000000;stroke-width:2;stroke-linecap:round;stroke-miterlimit:4;stroke-dasharray:none;stroke-dashoffset:0;stroke-opacity:1;paint-order:stroke fill markers"
             id="path37988"
             cx="-240.81911"
             cy="259.57495"
             rx="5.1854458"
             ry="5.3751569" />
          <rect
             style="opacity:1;fill:#ffffff;fill-opacity:1;stroke:#000000;stroke-width:0.89999998;stroke-linecap:round;stroke-miterlimit:4;stroke-dasharray:none;stroke-dashoffset:0;stroke-opacity:1;paint-order:stroke fill markers"
             id="rect37990"
             width="4.9324574"
             height="1.2647531"
             x="-356.25354"
             y="12.406415"
             ry="0.44266367"
             transform="rotate(-45)" />
        </g>
        <rect
           style="opacity:1;fill:#ffffff;fill-opacity:1;stroke:#000000;stroke-width:0.89999998;stroke-linecap:round;stroke-miterlimit:4;stroke-dasharray:none;stroke-dashoffset:0;stroke-opacity:1;paint-order:stroke fill markers"
           id="rect37992"
           width="4.9324574"
           height="1.2647531"
           x="10.572553"
           y="353.15491"
           ry="0.44266367"
           transform="rotate(45)" />
      </g>
      <g
         transform="translate(3.2962292,47.770501)"
         id="g38020">
        <g
           id="g38016">
          <ellipse
             ry="5.3751569"
             rx="5.1854458"
             cy="259.57495"
             cx="-240.81911"
             id="ellipse38012"
             style="opacity:1;fill:#ffffff;fill-opacity:1;stroke:#000000;stroke-width:2;stroke-linecap:round;stroke-miterlimit:4;stroke-dasharray:none;stroke-dashoffset:0;stroke-opacity:1;paint-order:stroke fill markers" />
          <rect
             transform="rotate(-45)"
             ry="0.44266367"
             y="12.406415"
             x="-356.25354"
             height="1.2647531"
             width="4.9324574"
             id="rect38014"
             style="opacity:1;fill:#ffffff;fill-opacity:1;stroke:#000000;stroke-width:0.89999998;stroke-linecap:round;stroke-miterlimit:4;stroke-dasharray:none;stroke-dashoffset:0;stroke-opacity:1;paint-order:stroke fill markers" />
        </g>
        <rect
           transform="rotate(45)"
           ry="0.44266367"
           y="353.15491"
           x="10.572553"
           height="1.2647531"
           width="4.9324574"
           id="rect38018"
           style="opacity:1;fill:#ffffff;fill-opacity:1;stroke:#000000;stroke-width:0.89999998;stroke-linecap:round;stroke-miterlimit:4;stroke-dasharray:none;stroke-dashoffset:0;stroke-opacity:1;paint-order:stroke fill markers" />
      </g>
      <path
         style="fill:none;stroke:#000000;stroke-width:0.89999998;stroke-linecap:butt;stroke-linejoin:miter;stroke-miterlimit:4;stroke-dasharray:none;stroke-opacity:1"
         d="m -249.89891,277.14384 -0.32853,9.66105 2.14634,9.65851 0.35772,13.5935 4.82926,7.33332"
         id="path38022" />
      <path
         style="fill:none;stroke:#000000;stroke-width:0.89999998;stroke-linecap:butt;stroke-linejoin:miter;stroke-miterlimit:4;stroke-dasharray:none;stroke-opacity:1"
         d="m -140.94298,243.87809 7.33333,7.15446 6.9756,7.5122 3.39837,11.26826"
         id="path38024" />
      <path
         style="fill:none;stroke:#000000;stroke-width:0.89999998;stroke-linecap:butt;stroke-linejoin:miter;stroke-miterlimit:4;stroke-dasharray:none;stroke-opacity:1"
         d="m -342.69891,139.60175 c 0,0 2.77648,10.9091 0.71543,15.73982 -1.49227,3.49761 -7.78274,3.79521 -8.58536,7.51219 -0.91232,4.22501 4.27604,7.62213 5.36586,11.80487 0.72406,2.77893 -0.81708,6.15678 0.71546,8.58536 0.88405,1.40093 3.36624,1.13079 4.29268,2.50406 5.32148,7.88807 4.10374,28.24922 4.10374,28.24922"
         id="path38030" />
      <path
         style="fill:none;stroke:#000000;stroke-width:0.89999998;stroke-linecap:butt;stroke-linejoin:miter;stroke-miterlimit:4;stroke-dasharray:none;stroke-opacity:1"
         d="m -328.7477,138.8863 c 0,0 5.43232,13.15642 3.93494,19.67478 -0.97176,4.23026 -7.64819,6.03921 -7.8699,10.37398 -0.164,3.20647 4.28892,5.09856 5.00811,8.22763 1.12691,4.90295 -2.3685,10.08174 -1.43087,15.02438 0.43904,2.31439 2.48534,4.05637 3.19991,6.30104 1.23897,3.89195 1.78862,12.12196 1.78862,12.12196"
         id="path38032" />
      <path
         style="fill:none;stroke:#000000;stroke-width:0.89999998;stroke-linecap:butt;stroke-linejoin:miter;stroke-miterlimit:4;stroke-dasharray:none;stroke-opacity:1"
         d="m -313.00788,155.87816 c 0,0 -6.76692,7.49359 -6.9756,12.16259 -0.18462,4.13081 5.54874,7.14921 5.18697,11.26828 -0.3111,3.54217 -6.22762,5.21143 -6.0813,8.76422 0.10806,2.62379 3.8294,3.7347 5.00814,6.0813 2.2328,4.44502 3.57723,14.48779 3.57723,14.48779"
         id="path38034" />
    </g>
  </g>
  <style
     id="style26"
     type="text/css" />
  <style
     type="text/css"
     id="style26-0" />
  <style
     type="text/css"
     id="style26-3" />
  <style
     type="text/css"
     id="style26-1" />
  <style
     type="text/css"
     id="style26-6" />
  <style
     type="text/css"
     id="style26-5" />
  <style
     id="style26-0-3"
     type="text/css" />
  <style
     id="style26-3-5"
     type="text/css" />
  <style
     id="style26-1-6"
     type="text/css" />
  <style
     id="style26-6-2"
     type="text/css" />
</svg>
