<?xml version="1.0" encoding="UTF-8" standalone="no"?>
<svg
   xmlns:dc="http://purl.org/dc/elements/1.1/"
   xmlns:cc="http://creativecommons.org/ns#"
   xmlns:rdf="http://www.w3.org/1999/02/22-rdf-syntax-ns#"
   xmlns:svg="http://www.w3.org/2000/svg"
   xmlns="http://www.w3.org/2000/svg"
   xmlns:xlink="http://www.w3.org/1999/xlink"
   id="svg52281"
   version="1.1"
   viewBox="0 0 330 330"
   height="330mm"
   width="330mm">
  <metadata
     id="metadata52278">
    <rdf:RDF>
      <cc:Work
         rdf:about="">
        <dc:format>image/svg+xml</dc:format>
        <dc:type
           rdf:resource="http://purl.org/dc/dcmitype/StillImage" />
        <dc:title></dc:title>
      </cc:Work>
    </rdf:RDF>
  </metadata>
  <g
     transform="translate(0,33)"
     id="layer1">
    <g
       transform="translate(68.745703,-37.268532)"
       id="g53320">
      <circle
         style="opacity:1;fill:#ffffff;fill-opacity:1;stroke:#050505;stroke-width:10;stroke-linecap:round;stroke-linejoin:bevel;stroke-miterlimit:4;stroke-dasharray:none;stroke-dashoffset:0;stroke-opacity:1;paint-order:stroke fill markers"
         id="path53176"
         cx="-99.134216"
         cy="-191.45782"
         r="121.93571"
         transform="scale(-1)" />
      <text
         xml:space="preserve"
         style="font-style:normal;font-variant:normal;font-weight:normal;font-stretch:normal;font-size:46.56952286px;line-height:1.25;font-family:aakar;-inkscape-font-specification:aakar;letter-spacing:0px;word-spacing:0px;fill:#000000;fill-opacity:1;stroke:none;stroke-width:1.74635708"
         id="text59885"><textPath
           xlink:href="#path53176"
           id="textPath53263"><tspan
   style="font-style:normal;font-variant:normal;font-weight:normal;font-stretch:normal;font-family:Ubuntu;-inkscape-font-specification:Ubuntu;fill:#000000;stroke-width:1.74635708"
   id="tspan59883">FitoRec: Ninja code</tspan></textPath></text>
      <path
         style="fill:#000000;stroke:#000000;stroke-width:0.26458332px;stroke-linecap:butt;stroke-linejoin:miter;stroke-opacity:1"
         d="m 116.52951,154.27807 -14.96709,-2.13815 -19.777945,5.87992 -16.83798,4.27632 -6.1472,2.93996 -4.009043,9.35443 8.285356,11.75986 12.828936,13.63075 9.087165,9.88897 13.363477,9.62171 7.750814,-1.60362 20.04522,-6.1472 15.50163,-22.45064 7.48354,-15.23437 -9.35443,-7.21627 -9.35443,-5.61266 -8.01809,-2.40543 z"
         id="path52438" />
      <path
         style="fill:#000000;stroke:#000000;stroke-width:0.99999994px;stroke-linecap:butt;stroke-linejoin:miter;stroke-opacity:1"
         d="m 238.39648,704.31641 -15.15234,19.19336 -46.4668,3.02929 -40.40625,21.21485 -14.14257,12.12109 -12.1211,24.24414 -27.275389,9.08984 -24.24414,42.42774 -33.333985,44.44726 -6.060547,17.17188 -4.041015,9.0918 c 0,0 -19.1937651,5.04962 -23.2343752,13.13086 -2.9048168,5.80964 -15.6370908,16.75594 -22.6171878,22.49804 A 460.85937,460.85937 0 0 0 92.25,1087.0996 l 7.75586,-0.9453 -29.294922,-19.1934 20.203124,-3.0293 -18.183593,3.0293 35.355471,21.2129 7.07226,4.041 0.5293,12.5235 a 460.85937,460.85937 0 0 0 130.73047,61.1836 l 242.6543,3.7578 a 460.85937,460.85937 0 0 0 92.16796,-34.2266 l 7.67774,-42.2285 32.32617,-11.1113 28.78516,10.4668 A 460.85937,460.85937 0 0 0 787.67383,926.86523 l -9.85547,-14.45703 -22.22461,-21.21289 -14.14258,-41.41601 -32.32422,-23.23438 -37.375,-52.52734 -29.29492,-29.29492 -47.47656,-19.19336 -37.37695,-16.16211 -22.22266,6.06054 z"
         transform="scale(0.26458333)"
         id="path52442" />
      <path
         style="fill:#ffffff;stroke:#000000;stroke-width:0.89999998;stroke-linecap:butt;stroke-linejoin:miter;stroke-miterlimit:4;stroke-dasharray:none;stroke-opacity:1"
         d="m 99.095106,232.26912 -70.826166,0.95137 4.018875,58.49049 a 121.93571,121.93571 0 0 0 69.991595,22.16504 121.93571,121.93571 0 0 0 60.76218,-16.39331 l -0.60358,-22.07099 -0.53433,-39.33611 z"
         id="path52448" />
      <path
         style="fill:none;stroke:#000000;stroke-width:0.26458332px;stroke-linecap:butt;stroke-linejoin:miter;stroke-opacity:1"
         d="m 70.291885,151.60537 15.234362,-4.54358 11.492589,1.60362 21.114294,-2.67269 10.15624,5.87992 8.01809,6.41447 8.01808,4.54359"
         id="path52450" />
      <path
         style="fill:#ffffff;stroke:#000000;stroke-width:0.5;stroke-linecap:butt;stroke-linejoin:miter;stroke-miterlimit:4;stroke-dasharray:none;stroke-opacity:1"
         d="m 82.85355,177.53052 c 0,0 -2.362544,2.14182 -3.54132,1.60362 -0.782068,-0.35707 -0.464132,-1.65629 -0.73499,-2.47224 -0.366297,-1.10345 -1.056395,-2.12064 -1.20272,-3.27405 -0.140853,-1.11028 0.405183,-2.22395 0.33409,-3.34087 -0.05663,-0.88966 -0.672634,-1.71728 -0.60136,-2.60588 0.05192,-0.64727 0.206108,-1.42732 0.73499,-1.80407 0.67218,-0.47882 2.47225,-0.13364 2.47225,-0.13364 0,0 3.14041,1.60362 3.14041,1.87089 0,0.26727 -0.60135,10.15624 -0.60135,10.15624 z"
         id="path52502" />
      <path
         style="fill:#ffffff;stroke:#000000;stroke-width:0.5;stroke-linecap:butt;stroke-linejoin:miter;stroke-miterlimit:4;stroke-dasharray:none;stroke-opacity:1"
         d="m 123.07761,178.80005 c 0,0 1.26003,2.13825 2.33861,2.53906 0.54642,0.20306 1.35836,0.24254 1.73725,-0.20045 0.70995,-0.83006 -0.0495,-2.18504 -0.13363,-3.27405 -0.13643,-1.76564 -0.10885,-3.57753 -0.60136,-5.27857 -0.41279,-1.4257 -1.65032,-2.55288 -1.9377,-4.00905 -0.14257,-0.7224 0.13363,-2.20497 0.13363,-2.20497 l -2.40542,-0.93544 -0.60136,2.67269 z"
         id="path52504" />
      <path
         style="fill:#ffffff;stroke:#000000;stroke-width:0.99999994px;stroke-linecap:butt;stroke-linejoin:miter;stroke-opacity:1"
         d="m 326.02734,738.4082 17.31446,70.72266 c 36.26194,18.72141 30.52543,30.82516 31.19089,68.73671 18.43499,-58.68222 40.62358,-50.69846 78.81498,-73.19061 l 0.61717,-11.01876 -1.66992,-45.14843 z"
         transform="scale(0.26458333)"
         id="path53065" />
      <path
         style="fill:#ffffff;stroke:#000000;stroke-width:0.89999998;stroke-linecap:butt;stroke-linejoin:miter;stroke-miterlimit:4;stroke-dasharray:none;stroke-opacity:1"
         d="m 122.20899,165.43658 2.73476,10.95805 -1.8871,11.80571 c 0,0 -1.27307,7.09138 -3.38673,9.84312 -1.79869,2.34169 -4.61113,3.8409 -7.34991,4.94448 -3.10426,1.25085 -6.56647,2.13986 -9.88897,1.73726 -2.851169,-0.34549 -5.386552,-2.0571 -7.88445,-3.47451 -2.945427,-1.67135 -6.050453,-3.33549 -8.28535,-5.87993 -1.630638,-1.85649 -3.47451,-6.5481 -3.47451,-6.5481 l -1.73725,-9.2208 0.53454,-7.61718 c -0.91417,-35.8966 41.373,-33.97611 40.62497,-6.5481 z"
         id="path52486" />
      <path
         style="fill:#000000;stroke:#000000;stroke-width:0.26458332px;stroke-linecap:butt;stroke-linejoin:miter;stroke-opacity:1"
         d="m 100.22606,167.37428 -0.46771,-2.33861 v 0 l -3.20724,-0.66817 -3.87541,0.13363 c -1.50875,0.39879 -2.93267,1.52313 -4.27631,2.40543 l 2.53906,-0.13364 3.0736,1e-5 4.14268,0.4009 z"
         id="path52488" />
      <path
         style="fill:#000000;stroke:#000000;stroke-width:0.26458332px;stroke-linecap:butt;stroke-linejoin:miter;stroke-opacity:1"
         d="m 110.04822,165.57021 0.26727,1.5368 3.87541,-1.5368 3.27405,0.0668 2.73952,1.46998 -2.00452,-2.73951 -3.54133,-0.53454 -2.13815,0.20045 z"
         id="path52490" />
      <path
         style="fill:none;stroke:#000000;stroke-width:0.5;stroke-linecap:butt;stroke-linejoin:miter;stroke-miterlimit:4;stroke-dasharray:none;stroke-opacity:1"
         d="m 102.43104,171.71741 c 0.0668,0.73499 1.20941,4.90654 0.86863,7.34991 -0.08,0.57353 -0.74184,1.02924 -0.66818,1.60362 0.089,0.69369 1.26953,1.67043 1.26953,1.67043"
         id="path52492" />
      <path
         style="fill:none;stroke:#000000;stroke-width:0.5;stroke-linecap:butt;stroke-linejoin:miter;stroke-miterlimit:4;stroke-dasharray:none;stroke-opacity:1"
         d="m 99.09017,181.53957 1.26953,1.87088 1.06908,-0.33408 2.93997,1.33634 1.40316,0.40091 1.87089,-1.20272 1.33634,-0.73499 2.33861,-0.93544 0.33409,-1.40316 -2.40543,-1.93771"
         id="path52494" />
      <path
         style="fill:none;stroke:#000000;stroke-width:0.5;stroke-linecap:butt;stroke-linejoin:miter;stroke-miterlimit:4;stroke-dasharray:none;stroke-opacity:1"
         d="m 96.08339,191.02763 c 0,0 2.219392,0.3835 3.34087,0.40091 1.7662,0.0274 3.51923,-0.3098 5.27857,-0.46772 1.22511,-0.10996 2.45497,-0.17719 3.67496,-0.33409 0.9406,-0.12097 1.88515,-0.24234 2.80633,-0.46772 0.97834,-0.23937 2.87315,-0.93544 2.87315,-0.93544"
         id="path52496" />
      <path
         style="fill:none;stroke:#000000;stroke-width:0.5;stroke-linecap:butt;stroke-linejoin:miter;stroke-miterlimit:4;stroke-dasharray:none;stroke-opacity:1"
         d="m 98.88972,190.5265 c 0,0 2.53464,-0.74713 3.842,-0.86862 1.19837,-0.11137 2.41728,0.30786 3.60814,0.13363 1.19868,-0.17537 2.24241,-0.99393 3.44109,-1.1693 0.89315,-0.13067 2.70611,0.10022 2.70611,0.10022"
         id="path52498" />
      <path
         style="fill:none;stroke:#000000;stroke-width:0.5;stroke-linecap:butt;stroke-linejoin:miter;stroke-miterlimit:4;stroke-dasharray:none;stroke-opacity:1"
         d="m 99.72494,192.89852 c 0.16704,0 3.22644,0.38389 4.84426,0.33409 1.36961,-0.0422 2.76363,-0.14003 4.07586,-0.53454 1.43566,-0.43162 4.04245,-1.97112 4.04245,-1.97112"
         id="path52500" />
      <path
         style="fill:none;stroke:#000000;stroke-width:0.5;stroke-linecap:butt;stroke-linejoin:miter;stroke-miterlimit:4;stroke-dasharray:none;stroke-opacity:1"
         d="m 99.42426,171.21628 c -3.62641,-2.60318 -6.58115,-1.9636 -8.48581,-0.13364 2.9312,2.17775 5.5136,1.84941 8.48581,0.13364 z"
         id="path52506" />
      <path
         style="fill:none;stroke:#000000;stroke-width:0.5;stroke-linecap:butt;stroke-linejoin:miter;stroke-miterlimit:4;stroke-dasharray:none;stroke-opacity:1"
         d="m 108.84551,170.64833 c 1.96087,-2.65691 6.2256,-2.76202 8.61944,-1.03567 -1.91247,1.39022 -5.53142,2.35417 -8.61944,1.03567 z"
         id="path52508" />
      <path
         style="opacity:1;fill:#000000;fill-opacity:1;stroke:#000000;stroke-width:0.26479939;stroke-linecap:round;stroke-linejoin:bevel;stroke-miterlimit:4;stroke-dasharray:none;stroke-dashoffset:0;stroke-opacity:1;paint-order:stroke fill markers"
         d="m 94.806275,169.48186 c -0.413914,-0.002 -0.808966,0.046 -1.187524,0.13023 a 1.6476226,1.5295051 0 0 0 -0.26665,0.83095 1.6476226,1.5295051 0 0 0 1.647963,1.52962 1.6476226,1.5295051 0 0 0 1.647444,-1.52962 1.6476226,1.5295051 0 0 0 -0.195855,-0.72089 c -0.574048,-0.16058 -1.123612,-0.23777 -1.645378,-0.24029 z"
         id="path52510" />
      <path
         style="opacity:1;fill:#000000;fill-opacity:1;stroke:#000000;stroke-width:0.26479939;stroke-linecap:round;stroke-linejoin:bevel;stroke-miterlimit:4;stroke-dasharray:none;stroke-dashoffset:0;stroke-opacity:1;paint-order:stroke fill markers"
         d="m 113.59841,168.45867 c -0.67419,0.003 -1.3499,0.10083 -1.99006,0.29714 a 1.6476226,1.5295051 0 0 0 -0.11317,0.55345 1.6476226,1.5295051 0 0 0 1.64744,1.52911 1.6476226,1.5295051 0 0 0 1.64745,-1.52911 1.6476226,1.5295051 0 0 0 -0.23564,-0.786 c -0.31601,-0.0402 -0.63505,-0.066 -0.95602,-0.0646 z"
         id="ellipse53055" />
      <path
         style="fill:#ffffff;stroke:#000000;stroke-width:0.5;stroke-linecap:butt;stroke-linejoin:miter;stroke-miterlimit:4;stroke-dasharray:none;stroke-opacity:1"
         d="m 118.46721,161.02663 -14.76663,-1.67044 -13.497117,1.87089 -4.009043,1.46999 -6.614922,4.94448 -1.04525,-6.22272 11.001042,-4.73533 12.02713,-4.54358 14.96709,2.13815 9.42125,6.21402 -1.33635,5.87993 -6.1472,-5.34539"
         id="path53109" />
      <path
         style="fill:#ffffff;stroke:#000000;stroke-width:0.5;stroke-linecap:butt;stroke-linejoin:miter;stroke-miterlimit:4;stroke-dasharray:none;stroke-opacity:1"
         d="m 80.682392,178.33094 -7.985082,5.07951 c -2.696715,1.71545 0.446665,8.08674 3.608139,12.82894 0,0 2.179996,2.81505 2.939965,4.40994 1.484871,3.11618 3.195017,6.43924 3.073598,9.88898 -0.09922,2.81904 -1.166715,5.80584 -3.073598,7.88445 -2.316342,2.52495 -9.220798,4.54358 -9.220798,4.54358 l 6.815373,3.60814 c 0,0 5.643224,-3.06848 7.082642,-5.7463 1.737632,-3.2326 0.996881,-7.28873 1.069078,-10.95805 0.06057,-3.07816 0.197157,-6.23025 -0.53454,-9.2208 -0.568625,-2.32405 -1.755256,-4.46939 -2.939963,-6.5481 -1.646137,-2.88834 -5.746295,-8.15172 -5.746295,-8.15172 l 5.146904,-1.32824 z"
         id="path53115" />
      <path
         style="fill:#ffffff;stroke:#000000;stroke-width:0.5;stroke-linecap:butt;stroke-linejoin:miter;stroke-miterlimit:4;stroke-dasharray:none;stroke-opacity:1"
         d="m 80.682392,178.33094 c 0,0 -4.672647,4.79237 -4.911481,7.61857 -0.205484,2.43156 2.098485,4.44366 2.672694,6.81537 0.621617,2.56753 1.65003,5.38263 0.801809,7.88445 -0.667808,1.9697 -2.643696,3.25509 -4.276312,4.54359 -3.022956,2.38579 -6.974243,3.39305 -10.022607,5.74629 -2.817544,2.17506 -7.483547,7.61718 -7.483547,7.61718 l 6.681738,3.60814 c 0,0 5.078313,-4.98884 7.617182,-7.48355 2.5838,-2.53886 5.697745,-4.63276 7.750815,-7.61718 1.074097,-1.56135 1.917049,-3.35013 2.271792,-5.21175 0.483906,-2.53945 -0.08961,-5.17179 -0.267269,-7.75082 -0.178496,-2.59125 -1.465995,-5.23978 -0.801809,-7.75082 0.195972,-0.7409 1.336347,-1.87088 1.336347,-1.87088"
         id="path53113" />
      <g
         id="g53125">
        <ellipse
           ry="0.77957588"
           rx="0.80319941"
           cy="154.71558"
           cx="102.85677"
           id="path53117"
           style="opacity:1;fill:#000000;fill-opacity:1;stroke:#000000;stroke-width:0.30000001;stroke-linecap:round;stroke-linejoin:bevel;stroke-miterlimit:4;stroke-dasharray:none;stroke-dashoffset:0;stroke-opacity:1;paint-order:stroke fill markers" />
        <ellipse
           style="opacity:1;fill:#000000;fill-opacity:1;stroke:#000000;stroke-width:0.30000001;stroke-linecap:round;stroke-linejoin:bevel;stroke-miterlimit:4;stroke-dasharray:none;stroke-dashoffset:0;stroke-opacity:1;paint-order:stroke fill markers"
           id="ellipse53119"
           cx="105.12463"
           cy="154.71558"
           rx="0.80319941"
           ry="0.77957588" />
      </g>
      <ellipse
         ry="0.77957588"
         rx="0.80319941"
         cy="102.90401"
         cx="-156.88895"
         id="ellipse53127"
         style="opacity:1;fill:#000000;fill-opacity:1;stroke:#000000;stroke-width:0.30000001;stroke-linecap:round;stroke-linejoin:bevel;stroke-miterlimit:4;stroke-dasharray:none;stroke-dashoffset:0;stroke-opacity:1;paint-order:stroke fill markers"
         transform="rotate(-90)" />
      <path
         style="fill:none;stroke:#ffffff;stroke-width:0.89999998;stroke-linecap:round;stroke-linejoin:miter;stroke-miterlimit:4;stroke-dasharray:none;stroke-opacity:1;paint-order:stroke fill markers"
         d="m 172.65611,202.92112 c -8.83329,23.08225 -13.89784,32.67173 -3.4745,64.14469"
         id="path53146" />
      <path
         style="fill:none;stroke:#ffffff;stroke-width:0.89999998;stroke-linecap:round;stroke-linejoin:miter;stroke-miterlimit:4;stroke-dasharray:none;stroke-opacity:1;paint-order:stroke fill markers"
         d="m 165.70711,247.55513 c 9.94273,-3.90351 14.24996,-8.36673 19.2434,-17.10525"
         id="path53148" />
      <path
         style="fill:none;stroke:#ffffff;stroke-width:0.89999998;stroke-linecap:round;stroke-linejoin:miter;stroke-miterlimit:4;stroke-dasharray:none;stroke-opacity:1;paint-order:stroke fill markers"
         d="m 175.06154,271.34211 18.44159,-5.87991"
         id="path53150" />
      <path
         style="fill:none;stroke:#000000;stroke-width:0.26458332px;stroke-linecap:butt;stroke-linejoin:miter;stroke-opacity:1"
         d="m 175.06154,271.34211 8.55262,9.08717 1.60362,1.87089 v 0"
         id="path53152" />
      <path
         style="fill:none;stroke:#ffffff;stroke-width:0.89999998;stroke-linecap:round;stroke-linejoin:miter;stroke-miterlimit:4;stroke-dasharray:none;stroke-opacity:1;paint-order:stroke fill markers"
         d="m 39.288619,206.39563 c 4.931881,11.95586 4.898748,21.27126 5.612662,33.94323"
         id="path53156" />
      <path
         style="fill:none;stroke:#ffffff;stroke-width:0.89999998;stroke-linecap:round;stroke-linejoin:miter;stroke-miterlimit:4;stroke-dasharray:none;stroke-opacity:1;paint-order:stroke fill markers"
         d="m 69.757345,202.92112 c -1.815631,15.43778 2.697564,25.20039 9.087164,38.75409"
         id="path53158" />
      <path
         style="fill:none;stroke:#ffffff;stroke-width:0.89999998;stroke-linecap:round;stroke-linejoin:miter;stroke-miterlimit:4;stroke-dasharray:none;stroke-opacity:1;paint-order:stroke fill markers"
         d="m -3.4745038,256.77593 c 10.0797176,-1.82728 8.4834062,8.85868 19.7779448,6.54811"
         id="path53162" />
      <path
         style="fill:none;stroke:#ffffff;stroke-width:0.89999998;stroke-linecap:round;stroke-linejoin:miter;stroke-miterlimit:4;stroke-dasharray:none;stroke-opacity:1;paint-order:stroke fill markers"
         d="m 11.759859,257.17684 c 7.377715,-0.17555 13.667038,4.78203 16.303442,8.81989"
         id="path53164" />
      <path
         style="fill:none;stroke:#ffffff;stroke-width:0.89999998;stroke-linecap:round;stroke-linejoin:miter;stroke-miterlimit:4;stroke-dasharray:none;stroke-opacity:1;paint-order:stroke fill markers"
         d="m 4.0090428,239.80432 c 7.2009842,-0.22249 16.5686522,0.37129 20.3124842,5.61266"
         id="path53166" />
      <g
         id="g53198">
        <path
           id="path53085"
           d="m 102.09727,105.90191 -5.078241,3.20756 -22.450826,20.31245 -1.336353,8.28528 -5.879745,3.7419 -8.552447,23.78666 6.146911,-2.93988 16.838247,-4.27622 19.777604,-5.87974 14.96705,2.13785 5.88026,4.54391 8.01811,2.40502 9.35447,5.61309 9.35446,7.2161 -7.48377,-14.69988 -6.94893,-15.23421 -3.20756,-8.82013 -4.54339,-9.0873 -8.55245,-10.15597 -3.47473,-2.93987 z"
           style="fill:#ffffff;stroke:#000000;stroke-width:1;stroke-linecap:butt;stroke-linejoin:miter;stroke-miterlimit:4;stroke-dasharray:none;stroke-opacity:1" />
        <g
           id="g53192">
          <path
             style="fill:none;stroke:#000000;stroke-width:0.5;stroke-linecap:butt;stroke-linejoin:miter;stroke-miterlimit:4;stroke-dasharray:none;stroke-opacity:1"
             d="m 79.646319,131.56016 15.234361,-6.68174 12.2944,0.80181 13.63074,6.94901 4.81086,2.13816"
             id="path52452" />
          <path
             style="fill:none;stroke:#000000;stroke-width:1;stroke-linecap:butt;stroke-linejoin:miter;stroke-miterlimit:4;stroke-dasharray:none;stroke-opacity:1"
             d="m 102.09696,105.90229 -2.672696,12.29439 v 13.09621"
             id="path52454" />
        </g>
      </g>
      <g
         transform="matrix(0.03739249,0,0,0.03313107,126.31166,272.11967)"
         id="layer1-1">
        <path
           id="path154"
           d="m 407.78259,-63.885865 c -5.50873,-0.01007 -11.25467,0.221097 -17.24663,0.698832 -151.44034,12.19639 -111.27731,172.185293 -113.52498,225.760433 -2.76559,39.17912 -10.7093,70.05493 -37.65515,108.35728 -31.65734,37.64621 -76.22729,98.57709 -97.34124,162.00402 -9.96481,29.93478 -14.70669,60.44635 -10.32746,89.32352 -1.3718,1.22846 -2.67777,2.51556 -3.91957,3.84127 -9.29459,9.92281 -16.16224,21.94573 -23.81454,30.04053 -7.149273,7.13157 -17.335189,9.84418 -28.528667,13.86011 -11.197757,4.01773 -23.49204,9.94102 -30.954745,24.26137 0,0 0,0.005 -0.005,0.007 -0.01218,0.0238 -0.02547,0.0461 -0.03816,0.0703 v 0 c -6.755617,12.61799 -4.747277,27.1486 -2.684066,40.61093 2.063272,13.46217 4.152016,26.18346 1.379482,34.81434 -8.862262,24.22286 -9.993724,40.9783 -3.754978,53.13208 6.252047,12.17909 19.106775,17.55476 33.635407,20.58924 29.057347,6.06892 68.408607,4.56076 99.421957,20.99815 l 2.66563,-5.02968 -2.63804,5.04467 c 33.2013,17.35854 66.86088,23.52414 93.71531,17.39039 19.4699,-4.44703 35.27484,-16.04026 43.39171,-33.87948 21.00445,-0.10329 44.05315,-8.9992 80.97431,-11.03212 25.04734,-2.01755 56.33588,8.8946 92.32544,6.89621 0.94075,3.90462 2.30228,7.66025 4.166,11.22902 0.0191,0.0367 0.037,0.073 0.0565,0.10928 13.95143,27.89813 39.87419,40.65877 67.49992,38.47853 27.66216,-2.18303 57.07262,-18.49393 80.84647,-46.78632 l -4.35833,-3.6627 4.39165,3.62239 c 22.66004,-27.47602 60.27198,-38.86926 85.21172,-53.91132 12.46992,-7.52124 22.58833,-16.93894 23.37012,-30.61751 0.78137,-13.6717 -7.24514,-28.99303 -25.70186,-49.48067 0,0 -0.005,-0.005 -0.005,-0.005 -0.007,-0.009 -0.0144,-0.017 -0.0216,-0.0255 -6.06426,-6.85303 -8.95726,-19.55446 -12.06623,-33.08031 -3.10684,-13.51762 -6.57481,-28.09935 -17.67261,-37.54916 v 0 c -0.0222,-0.0196 -0.0446,-0.0371 -0.0668,-0.0565 0,0 0,0 0,0 -4.41677,-3.84869 -9.00656,-6.46081 -13.62872,-8.21572 15.42945,-45.75986 9.37563,-91.32556 -6.19944,-132.50113 -19.115,-50.53385 -52.48693,-94.56634 -77.97362,-124.68843 -28.5282,-35.98392 -56.43129,-70.14776 -55.88163,-120.60662 0.84975,-77.011218 8.47096,-219.826209 -127.04556,-220.011161 z m 18.34628,118.643307 c 7.68981,0 14.25742,2.25397 21.0038,7.15062 6.85352,4.97429 11.79099,11.20136 15.77046,19.89724 3.90574,8.47479 5.78493,16.765228 5.96918,26.603428 0,0.25793 0,0.47896 0.0737,0.7369 0.0737,10.096 -1.65808,18.68131 -5.49019,27.45088 -2.18659,5.00397 -4.69769,9.20386 -7.70326,12.83995 -1.02037,-0.48987 -2.08011,-0.96088 -3.17921,-1.41285 v 0 c -7.61844,-3.263 -13.4627,-5.33952 -18.33357,-7.02968 1.76566,-2.12238 3.23589,-4.63951 4.52871,-7.78619 1.95288,-4.75319 2.9109,-9.39599 3.09513,-14.92295 0,-0.22114 0.0737,-0.40539 0.0737,-0.66331 0.1105,-5.30584 -0.58955,-9.83807 -2.13711,-14.4808 -1.62126,-4.86374 -3.6847,-8.364138 -6.66927,-11.275048 -2.98459,-2.91102 -5.96917,-4.2374 -9.54336,-4.34805 -0.16756,-0.0101 -0.33463,-0.0101 -0.49969,-0.0101 -3.36198,0.0101 -6.28124,1.16298 -9.30153,3.6916 -3.16882,2.65307 -5.527,6.042818 -7.47993,10.759258 -1.95287,4.71634 -2.9109,9.39585 -3.09508,14.95979 -0.037,0.22114 -0.037,0.40539 -0.037,0.62643 -0.0637,3.05835 0.13058,5.86005 0.6022,8.58065 -6.87909,-3.42776 -13.36178,-5.76468 -19.44586,-7.21275 -0.34682,-2.63091 -0.54743,-5.34583 -0.61148,-8.18451 v -0.77387 c -0.11056,-10.05921 1.54757,-18.681298 5.4165,-27.450778 3.86894,-8.76959 8.65901,-15.07045 15.40197,-20.19214 6.74295,-5.12168 13.37535,-7.47985 21.22375,-7.55355 0.12265,0 0.24528,0 0.36733,0 z m -105.25063,8.33313 c 5.10126,0.0121 9.66594,1.71632 14.38753,5.48676 5.1217,4.08989 8.99062,9.32212 12.23314,16.69153 3.24251,7.3694 4.97432,14.738698 5.45331,23.434588 v 0.0732 c 0.23218,3.65219 0.20379,7.09001 -0.0841,10.41947 -1.00892,0.28676 -1.99763,0.59704 -2.96615,0.93048 -5.50045,1.89336 -10.34796,4.47365 -14.57292,7.26346 0.41314,-2.91831 0.47463,-5.87927 0.15775,-9.18071 -0.0371,-0.18425 -0.0371,-0.33162 -0.0371,-0.51578 -0.44217,-4.38478 -1.36333,-8.06945 -2.91089,-11.79101 -1.65808,-3.86877 -3.50045,-6.59553 -5.93236,-8.69586 -2.20386,-1.903278 -4.28619,-2.777298 -6.57714,-2.759988 -0.23701,0 -0.47671,0.0131 -0.71849,0.0332 -2.57929,0.2209 -4.7164,1.47368 -6.743,3.942498 -2.02656,2.46871 -3.35302,5.52702 -4.31104,9.58008 -0.95803,4.05318 -1.21596,8.03266 -0.81066,12.6016 0,0.18416 0.0371,0.33171 0.0371,0.51586 0.44211,4.42167 1.32645,8.10626 2.91088,11.82791 1.62126,3.83204 3.50045,6.55868 5.93236,8.65891 0.40727,0.35174 0.81019,0.6677 1.21129,0.94998 -2.52954,1.94681 -3.7374,2.84435 -5.81024,4.36747 -1.32948,0.97552 -2.91286,2.13703 -4.75322,3.49357 -4.01343,-3.75973 -7.14438,-8.48491 -9.8819,-14.70649 -3.24251,-7.36927 -4.97432,-14.73871 -5.49018,-23.4346 v -0.0732 c -0.47899,-8.69577 0.36847,-16.17572 2.76352,-23.913518 2.39505,-7.73789 5.60075,-13.33852 10.2434,-17.94451 4.6427,-4.60579 9.32229,-6.92711 14.95985,-7.2218 0.44042,-0.0242 0.87692,-0.0352 1.30918,-0.0332 z m 47.86748,60.328528 c 11.85658,-0.0458 26.12439,3.84137 43.39749,14.94721 10.60991,6.89962 18.8657,7.47626 37.87621,15.61839 l 0.0228,0.0101 0.0233,0.009 c 9.14674,3.75287 14.51541,8.64454 17.13839,13.7956 2.62293,5.15116 2.68708,10.73707 0.49165,16.61331 -4.39072,11.75274 -18.40589,24.12121 -38.07313,30.2628 l -0.0186,0.008 -0.0175,0.008 c -9.58965,3.11567 -17.95175,9.9961 -27.81012,15.63339 -9.85808,5.63699 -21.01325,10.1836 -36.18123,9.30614 0,-8e-5 0,0 0,0 -12.91279,-0.75261 -20.63157,-5.1363 -27.61094,-10.74548 -6.97955,-5.60927 -13.0616,-12.65611 -21.96762,-17.88568 l -0.0228,-0.0137 -0.0233,-0.0137 c -14.34552,-8.10836 -22.1775,-17.48651 -24.63551,-25.6166 -2.45809,-8.13013 -0.15126,-15.06986 6.96633,-20.40398 8.00219,-5.99706 13.56097,-10.07641 17.26382,-12.79381 3.67848,-2.69928 5.2089,-3.71141 6.3803,-4.8362 0.006,-0.009 0.0123,-0.0128 0.0185,-0.0183 0,0 0.005,-0.009 0.005,-0.009 6.01265,-5.69136 15.59728,-16.06039 30.04507,-21.0337 4.97264,-1.71177 10.52135,-2.81616 16.73192,-2.8407 z m 82.90989,49.03512 c -5.1165,0.30507 -10.47514,2.93936 -16.71458,6.42286 -6.2395,3.48341 -13.25602,7.9394 -20.85995,12.32752 -15.20781,8.77624 -32.71394,17.16948 -50.11162,17.16948 -17.42471,0 -31.34606,-8.04745 -41.78774,-16.32197 -5.22086,-4.13728 -9.52984,-8.30459 -12.97238,-11.52842 -1.72127,-1.61201 -3.21407,-2.98586 -4.60701,-4.05895 -1.39268,-1.07307 -2.52631,-2.1371 -4.85688,-2.1371 l -0.11168,4.89716 c -0.16687,1.63864 -0.33834,1.58812 -0.27059,1.63278 0.10871,0.0714 0.64946,0.25783 1.28044,0.74386 1.02404,0.78889 2.44551,2.07487 4.13257,3.65474 3.37415,3.15979 7.85768,7.50416 13.37774,11.87851 11.04,8.7486 26.39345,17.72443 45.81553,17.72443 19.44908,0 37.8502,-9.0906 53.3542,-18.03767 7.75193,-4.47357 14.79245,-8.93912 20.77931,-12.28148 5.98655,-3.34245 11.02348,-5.43837 13.93957,-5.61227 z m 17.28809,23.27447 c 12.91771,50.92115 42.9627,124.47072 62.27343,160.36425 10.26433,19.04333 30.68512,59.50377 39.50787,108.25133 5.59046,-0.17127 11.74615,0.64098 18.33819,2.32708 23.06771,-59.80219 -19.56113,-124.2171 -39.0542,-142.15612 -7.86992,-7.63655 -8.2482,-11.05804 -4.34675,-10.8963 21.14919,18.70291 48.91343,56.32043 59.01476,98.78056 4.60604,19.36109 5.58806,39.71497 0.64599,59.80235 2.41794,1.00448 4.87363,2.09659 7.36243,3.27477 37.02795,18.03073 50.72215,33.70986 44.13786,55.109 -2.16863,-0.0761 -4.30183,-0.0675 -6.38252,-0.0175 -0.19419,0.005 -0.38692,0.0101 -0.58039,0.0148 5.36205,-16.9624 -6.5167,-29.47308 -38.16979,-43.79469 -32.83054,-14.44394 -58.99175,-13.00693 -63.41335,16.28631 -0.28298,1.53469 -0.51061,3.09853 -0.68399,4.68414 -2.45279,0.85176 -4.91893,1.93925 -7.39125,3.29204 -15.41611,8.43525 -23.8304,23.7408 -28.51025,42.51314 -4.67608,18.75716 -6.01663,41.43346 -7.30717,66.92419 0,0.005 0,0.009 0,0.0132 -0.78851,12.81759 -6.05827,30.15383 -11.40294,48.5158 -53.78147,38.36325 -128.42502,54.98431 -191.80023,11.73339 -4.29494,-6.79423 -9.2218,-13.52602 -14.29316,-20.16546 -3.2385,-4.23996 -6.56524,-8.454 -9.87265,-12.60867 6.5058,0.005 12.03576,-1.06037 16.50509,-3.08692 5.55787,-2.52017 9.46294,-6.56804 11.39488,-11.76454 3.86384,-10.39316 -0.0169,-25.0546 -12.38629,-41.79711 -12.36863,-16.74135 -33.31667,-35.63553 -64.09851,-54.51358 0,0 -0.005,0 -0.005,-0.005 -22.61406,-14.0691 -35.26118,-31.31359 -41.18086,-50.03678 -5.92024,-18.72483 -5.09014,-38.97245 -0.52737,-58.96299 8.7578,-38.3711 31.25988,-75.69006 45.61747,-99.10986 3.86549,-2.8442 1.38107,5.27944 -14.5349,34.83522 -14.26425,27.02229 -40.93131,89.38371 -4.41932,138.06271 0.97573,-34.64244 9.24887,-69.97344 23.13748,-103.02138 20.22983,-45.85661 62.54332,-125.37763 65.90401,-188.75699 1.73273,1.25821 7.68701,5.27572 10.34013,6.78451 0.005,0.008 0.0117,0.008 0.017,0.009 7.76249,4.57119 13.59244,11.25324 21.14318,17.32153 7.5657,6.0803 17.01729,11.33203 31.29675,12.16406 v 0 c 16.66707,0.96445 29.36983,-4.19787 39.77727,-10.14905 10.39178,-5.94216 18.69349,-12.51837 26.55852,-15.08535 0.0123,-0.008 0.0239,-0.008 0.0355,-0.0113 16.61951,-5.19718 29.83377,-14.39595 37.35342,-25.12494 z m 105.55922,291.52274 c 6.73161,-0.0312 14.88609,2.21313 23.81226,6.20638 24.02409,11.09092 31.54084,20.59739 24.98213,34.56235 -5.527,10.53819 -29.18268,27.30348 -45.39528,22.88189 -16.54418,-4.27423 -24.61366,-28.11415 -21.92387,-46.1322 1.44083,-12.23549 8.36135,-17.47091 18.52476,-17.51842 z m -27.18143,32.9261 c 1.35802,22.03362 12.25934,44.50549 31.53855,49.36899 21.09753,5.55873 51.51581,-12.54314 64.35873,-27.3081 2.56085,-0.1025 5.06453,-0.22799 7.49602,-0.28668 11.26569,-0.27202 20.71453,0.37107 30.36871,8.81438 l 0.0334,0.0286 0.0344,0.0286 c 7.419,6.28553 10.9455,18.16389 14.0041,31.47065 3.05844,13.3068 5.50422,27.79937 14.67654,38.12376 l 0.0137,0.0148 0.0127,0.0148 c 17.63401,19.56838 23.30213,32.7951 22.81967,41.23729 -0.48253,8.44241 -6.59507,14.70976 -17.88217,21.51734 -22.56443,13.60962 -62.54539,25.44424 -88.08231,56.37684 -22.17411,26.3884 -49.21298,40.88134 -73.02578,42.76074 -23.81279,1.87925 -44.35761,-8.00399 -56.47007,-32.31472 l -0.0276,-0.0551 -0.0286,-0.0542 c -7.51419,-14.29408 -4.38399,-36.85208 1.94594,-60.64633 6.33007,-23.79442 15.42469,-48.2261 16.64212,-68.08383 v -0.0312 -0.0302 c 1.28789,-25.44312 2.71199,-47.66251 6.98596,-64.80656 4.27391,-17.14405 11.00373,-28.75506 22.92793,-35.27967 0.55528,-0.3038 1.10651,-0.59044 1.65463,-0.8613 z m -387.22543,1.66273 c 1.77975,0.007 3.66318,0.1558 5.66981,0.45944 13.49768,2.04462 25.26814,11.48208 36.60841,26.86358 11.34037,15.38173 21.89234,36.37883 32.73959,59.67004 l 0.0138,0.0286 0.0127,0.0276 c 8.71684,18.1933 27.11081,38.19813 42.69857,58.60595 15.58768,20.4078 27.65156,40.89263 26.08057,56.57134 l -0.007,0.0681 -0.005,0.0679 c -2.03222,26.7408 -17.11654,41.2982 -40.27247,46.58714 -23.14903,5.28718 -54.53105,0.017 -85.87605,-16.36472 -0.009,-0.005 -0.0186,-0.009 -0.0276,-0.0148 -34.67886,-18.36731 -75.93364,-16.54296 -102.397339,-22.07006 -13.235445,-2.76443 -21.871626,-6.92036 -25.835367,-14.64216 -3.964013,-7.72153 -4.052482,-21.19325 4.370898,-44.16301 l 0.03705,-0.1014 0.03333,-0.10255 c 4.165689,-12.84964 1.082883,-26.9091 -0.939592,-40.10545 -2.022476,-13.19641 -3.011543,-25.1997 1.494601,-33.56614 l 0.02074,-0.0382 0.02054,-0.0392 c 5.769358,-11.12094 14.231783,-15.09641 24.734594,-18.86442 10.502751,-3.76822 22.956785,-6.72755 32.791335,-16.58338 l 0.0509,-0.052 0.0508,-0.053 c 9.09167,-9.59117 15.92092,-21.61352 23.91357,-30.14646 6.7438,-7.19963 13.49253,-11.97133 23.66489,-12.04201 0.1177,0 0.236,0 0.35465,0 z"
           style="color:#000000;font-style:normal;font-variant:normal;font-weight:normal;font-stretch:normal;font-size:medium;line-height:normal;font-family:'Bitstream Vera Sans';-inkscape-font-specification:'Bitstream Vera Sans';text-indent:0;text-align:start;text-decoration:none;text-decoration-line:none;letter-spacing:normal;word-spacing:normal;text-transform:none;writing-mode:lr-tb;direction:ltr;baseline-shift:baseline;text-anchor:start;display:inline;overflow:visible;visibility:visible;fill:#000000;fill-opacity:1;stroke:none;stroke-width:309;marker:none;enable-background:accumulate" />
        <g
           id="text2999"
           style="font-style:normal;font-weight:normal;font-size:429.75283813px;line-height:125%;font-family:Sans;letter-spacing:0px;word-spacing:0px;fill:#000000;fill-opacity:1;stroke:none"
           transform="matrix(0.91159133,0,0,0.91159133,-140.97298,1091.3033)" />
      </g>
      <g
         id="layer1-2"
         transform="matrix(0.21329797,0,0,0.21329797,38.605185,75.12312)">
        <circle
           r="20"
           cy="969.76807"
           cx="39.465446"
           id="circle32770"
           style="opacity:1;fill:#000000;fill-opacity:1;stroke:none;stroke-width:5.1748023;stroke-linecap:round;stroke-miterlimit:4;stroke-dasharray:none;stroke-dashoffset:0;stroke-opacity:1;paint-order:stroke fill markers" />
        <circle
           style="opacity:1;fill:#000000;fill-opacity:1;stroke:none;stroke-width:5.1748023;stroke-linecap:round;stroke-miterlimit:4;stroke-dasharray:none;stroke-dashoffset:0;stroke-opacity:1;paint-order:stroke fill markers"
           id="circle32772"
           cx="85.465446"
           cy="967.76807"
           r="20" />
        <circle
           style="opacity:1;fill:#000000;fill-opacity:1;stroke:none;stroke-width:5.1748023;stroke-linecap:round;stroke-miterlimit:4;stroke-dasharray:none;stroke-dashoffset:0;stroke-opacity:1;paint-order:stroke fill markers"
           id="circle32774"
           cx="40.265926"
           cy="1011.6598"
           r="20" />
        <path
           style="fill:#000000;fill-opacity:1;fill-rule:evenodd;stroke:none;stroke-width:0.41827282"
           d="M 62.836007,927.07118 C 28.150358,927.07118 0,955.13724 0,989.71769 c 0,34.58051 28.150353,62.64461 62.836007,62.64451 13.765265,0 26.491951,-4.4324 36.847702,-11.9257 h 66.000071 c 6.25785,0 11.68408,-3.3873 14.57033,-8.4239 -0.88127,-0.027 -1.61389,-0.4849 -2.19336,-1.3906 l -4.28321,-6.6738 h -20.47268 l -4.30275,6.6738 c -0.45154,0.7312 -0.9543,1.0977 -1.50781,1.0977 -0.29133,0 -0.64098,-0.092 -1.04883,-0.2793 -0.88854,-0.4201 -1.33398,-0.9894 -1.33398,-1.7051 0,-0.1555 0.0435,-0.3112 0.13086,-0.4668 l 15.33791,-25.0391 c 0.58263,-0.949 1.5743,-1.4613 2.97266,-1.5391 1.1507,-0.062 2.00311,0.2787 2.55664,1.0254 0.0437,0.1245 0.12368,0.2959 0.24023,0.5137 l 15.59377,23.5723 c 0.32944,-1.312 0.52344,-2.6791 0.52344,-4.0957 v -17.1602 c 0,-9.26911 -7.4859,-16.73241 -16.78322,-16.73241 h -40.01372 c 5e-5,-0.0321 0.002,-0.0636 0.002,-0.0957 0,-34.58045 -28.150363,-62.64651 -62.836013,-62.64651 z m 0,8.35352 c 30.060905,0 54.459043,24.32326 54.459043,54.29299 0,0.0321 -0.002,0.0636 -0.002,0.0957 H 82.461028 c -9.29732,0 -16.781268,7.4633 -16.781268,16.73241 v 17.1602 c 0,9.2093 7.389738,16.6252 16.603538,16.7207 -6.042126,2.3067 -12.594624,3.584 -19.447291,3.584 -30.060896,0 -54.4570918,-24.3233 -54.4570918,-54.29301 0,-29.96973 24.3961958,-54.29299 54.4570918,-54.29299 z m 105.851673,57.95314 c 0.39326,0 0.75677,0.13993 1.09181,0.41992 0.34956,0.2645 0.52537,0.5758 0.52539,0.9336 -2e-5,0.2023 -0.0593,0.39728 -0.17578,0.58398 -0.11655,0.1711 -1.12898,1.27646 -3.03712,3.31446 -1.90819,2.0381 -2.96406,3.1414 -3.16797,3.3125 -0.3059,0.249 -0.63285,0.3731 -0.98242,0.373 -0.3933,10e-5 -0.74296,-0.1319 -1.04883,-0.3964 -0.29134,-0.2644 -0.43752,-0.5758 -0.4375,-0.9336 -2e-5,-0.3112 0.13038,-0.6066 0.39258,-0.8867 l 6.0957,-6.41607 c 0.18934,-0.2022 0.43822,-0.30469 0.74414,-0.30469 z m -81.431724,9.63676 c 1.136141,0 1.703112,0.6069 1.703132,1.8203 v 0.5605 c -2e-5,1.2291 -0.566991,1.8438 -1.703132,1.8438 -0.131111,0 -0.444221,-0.01 -0.939451,-0.023 h -1.246102 c -4.777707,0 -7.16603,0.9969 -7.16602,2.9882 v 1.9825 c -10e-6,1.2446 0.996621,2.0544 2.992194,2.4277 0.801121,0.1401 2.229372,0.209 4.283206,0.209 h 6.488287 c 2.884064,0 5.331656,0.4295 7.341809,1.2851 2.825791,1.2135 4.238251,3.1267 4.238281,5.7403 v 2.5429 c -3e-5,1.5091 -0.22426,2.6992 -0.67578,3.5704 -1.23815,2.318 -4.894713,3.4765 -10.96876,3.4765 H 74.80086 c -1.121601,0 -1.681642,-0.6147 -1.681642,-1.8437 0,-0.8245 0.08,-1.3999 0.24024,-1.7266 0.247621,-0.4667 0.727651,-0.6991 1.441402,-0.6992 h 16.80276 c 4.530035,10e-5 6.794898,-0.8945 6.794928,-2.6836 v -2.4512 c -3e-5,-1.7735 -2.191793,-2.7212 -6.576177,-2.8457 -7.472439,-0.2334 -11.544835,-0.4126 -12.214866,-0.5371 -4.369845,-0.7934 -6.554687,-2.878 -6.554687,-6.2539 v -2.1484 c 0,-3.3915 1.718642,-5.5766 5.156256,-6.5567 1.587691,-0.4512 4.604205,-0.6777 9.046882,-0.6777 z m 21.957054,0 c 1.13615,0 1.70507,0.6069 1.70508,1.8203 v 24.7598 c -1e-5,1.229 -0.56893,1.8418 -1.70508,1.8418 -1.19443,0 -1.90757,-0.037 -2.14062,-0.1152 -0.67005,-0.2178 -1.00586,-0.7932 -1.00586,-1.7266 v -24.7598 c 0,-0.9334 0.33581,-1.5107 1.00586,-1.7285 0.23305,-0.062 0.94619,-0.092 2.14062,-0.092 z m 16.08205,0 h 17.36916 c 0.71371,0 1.1957,0.2245 1.44336,0.6757 0.17476,0.3111 0.26168,0.8806 0.26172,1.7051 -4e-5,1.2291 -0.56896,1.8418 -1.70508,1.8418 h -17.28127 c -4.19506,0 -6.29298,0.8945 -6.29297,2.6837 v 14.0723 c -1e-5,2.1158 2.32215,3.1738 6.96876,3.1738 h 16.49611 c 1.17982,0 1.77145,0.7073 1.77148,2.123 -3e-5,1.4313 -0.59166,2.1485 -1.77148,2.1485 h -16.49611 c -2.22863,0 -3.83075,-0.094 -4.80666,-0.2813 -1.04876,-0.1867 -2.16194,-0.6142 -3.34179,-1.2832 -1.29639,-0.7156 -2.22188,-1.4939 -2.77539,-2.334 -0.59721,-0.8867 -0.89649,-2.0374 -0.89649,-3.4531 v -14.1426 c 0,-1.7737 0.7724,-3.2966 2.31641,-4.5723 1.31094,-1.0579 2.86265,-1.7593 4.6543,-2.1016 0.94678,-0.1711 2.30886,-0.2558 4.08594,-0.2558 z m 38.25786,5.041 -7.40626,11.5977 h 14.76955 z"
           id="path18241" />
      </g>
      <g
         id="use4187"
         transform="matrix(0.36368518,0,0,0.36368518,115.13684,244.76587)">
        <path
           id="path53252"
           d="M 60.94,29.7 34.3,3.06 a 3.93,3.93 0 0 0 -5.56,0 l -5.53,5.53 7,7 a 4.67,4.67 0 0 1 5.91,6 l 6.76,6.76 A 4.67,4.67 0 1 1 40.1,31 l -6.31,-6.31 v 16.6 A 4.67,4.67 0 1 1 29.95,41.15 V 24.36 A 4.68,4.68 0 0 1 27.41,18.23 L 20.49,11.31 2.22,29.58 a 3.93,3.93 0 0 0 0,5.56 l 26.65,26.64 a 3.93,3.93 0 0 0 5.56,0 L 60.94,35.26 a 3.93,3.93 0 0 0 0,-5.56 z"
           class="cls-1"
           style="fill:#000000" />
      </g>
    </g>
  </g>
  <style
     type="text/css"
     id="style26" />
  <style
     id="style26-0"
     type="text/css" />
  <style
     id="style26-3"
     type="text/css" />
  <style
     id="style26-1"
     type="text/css" />
  <style
     id="style26-6"
     type="text/css" />
</svg>
