<?xml version="1.0" encoding="UTF-8" standalone="no"?>
<svg
   xmlns:dc="http://purl.org/dc/elements/1.1/"
   xmlns:cc="http://creativecommons.org/ns#"
   xmlns:rdf="http://www.w3.org/1999/02/22-rdf-syntax-ns#"
   xmlns:svg="http://www.w3.org/2000/svg"
   xmlns="http://www.w3.org/2000/svg"
   xmlns:xlink="http://www.w3.org/1999/xlink"
   width="110mm"
   height="110mm"
   viewBox="0 0 110 110"
   version="1.1"
   id="svg8">
  <metadata
     id="metadata39">
    <rdf:RDF>
      <cc:Work
         rdf:about="">
        <dc:format>image/svg+xml</dc:format>
        <dc:type
           rdf:resource="http://purl.org/dc/dcmitype/StillImage" />
        <dc:title></dc:title>
      </cc:Work>
    </rdf:RDF>
  </metadata>
  <defs
     id="defs37" />
  <g
     id="layer1"
     transform="translate(0,-187)">
    <circle
       style="opacity:0.94499966;fill:#ffffff;fill-opacity:1;stroke:#000000;stroke-width:2;stroke-linecap:round;stroke-miterlimit:4;stroke-dasharray:none;stroke-dashoffset:0;stroke-opacity:1;paint-order:stroke fill markers"
       id="path11456"
       cx="77.848457"
       cy="-244.57178"
       r="40"
       transform="rotate(150)" />
    <path
       id="path12305"
       d="m 66.87153,277.3641 c -3.3365,0 -6.05261,2.71409 -6.05261,6.0526 0,3.3365 2.71611,6.05261 6.05261,6.05261 3.3365,0 6.05261,-2.71611 6.05261,-6.05261 0,-3.33902 -2.71611,-6.0526 -6.05261,-6.0526 z m -5.4423,6.0521 c 0,-0.78836 0.16795,-1.53736 0.47108,-2.21375 l 2.59658,7.11182 c -1.81629,-0.88317 -3.06766,-2.74486 -3.06766,-4.89807 z m 5.4423,5.4428 c -0.53466,0 -1.04962,-0.0781 -1.53736,-0.22243 l 1.63269,-4.74423 1.67202,4.58334 c 0.0123,0.0272 0.0247,0.0509 0.0388,0.0757 -0.56391,0.19771 -1.17168,0.30767 -1.8062,0.30767 z m 0.74901,-7.99196 v -4.5e-4 c 0.32685,-0.0171 0.6219,-0.0509 0.6219,-0.0509 0.29306,-0.0343 0.25875,-0.46606 -0.0343,-0.44941 0,0 -0.88116,0.068 -1.44959,0.068 -0.53466,0 -1.43296,-0.068 -1.43296,-0.068 -0.29255,-0.0171 -0.32634,0.43225 -0.0338,0.44941 0,0 0.27791,0.0343 0.57095,0.0509 l 0.84687,2.32319 -1.19085,3.57053 -1.98122,-5.89372 c 0.32734,-0.0171 0.62241,-0.0509 0.62241,-0.0509 0.29304,-0.0343 0.25875,-0.46605 -0.0343,-0.44941 0,0 -0.88116,0.068 -1.44959,0.068 -0.10238,0 -0.22245,-0.002 -0.35157,-0.007 0.97397,-1.47684 2.64551,-2.45283 4.54703,-2.45283 1.4158,0 2.70652,0.54221 3.67545,1.42741 -0.0247,-0.002 -0.0464,-0.005 -0.0706,-0.005 -0.53464,0 -0.91294,0.46605 -0.91294,0.9664 0,0.4489 0.25875,0.82719 0.53465,1.2766 0.20731,0.36114 0.44941,0.8272 0.44941,1.50104 0,0.46606 -0.17805,1.00525 -0.4151,1.7598 l -0.54224,1.81325 z m 4.0275,-0.0615 c 0.42469,0.77624 0.66629,1.66446 0.66629,2.6117 0,2.00844 -1.08845,3.76067 -2.70652,4.70286 l -4.4e-4,-4.3e-4 1.66193,-4.80577 c 0.3097,-0.77626 0.41511,-1.39563 0.41511,-1.94996 0,-0.19974 -0.0123,-0.38535 -0.0363,-0.55835 z"
       style="fill:#000000;stroke-width:0.5043838" />
    <text
       xml:space="preserve"
       style="font-style:normal;font-variant:normal;font-weight:normal;font-stretch:normal;font-size:18.97941017px;line-height:1.25;font-family:aakar;-inkscape-font-specification:aakar;letter-spacing:0px;word-spacing:0px;fill:#000000;fill-opacity:1;stroke:none;stroke-width:0.71172792"
       id="text59902"><textPath
         xlink:href="#path11456"
         id="textPath12315"><tspan
   style="font-style:normal;font-variant:normal;font-weight:normal;font-stretch:normal;font-family:Ubuntu;-inkscape-font-specification:Ubuntu;fill:#000000;stroke-width:0.71172792"
   id="tspan59896" /><tspan
   style="font-style:normal;font-variant:normal;font-weight:normal;font-stretch:normal;font-family:Ubuntu;-inkscape-font-specification:Ubuntu;fill:#000000;stroke-width:0.71172792"
   id="tspan59900">Luis: Wordpress jedi</tspan></textPath></text>
    <path
       style="fill:#000000;stroke:#000000;stroke-width:0.26458332px;stroke-linecap:butt;stroke-linejoin:miter;stroke-opacity:1"
       d="m 65.503,260.0991 2.40543,6.949 12.56167,-8.88671 -8.8199,-20.51293 -10.35669,0.20045 z"
       id="path12270" />
    <path
       style="fill:#000000;stroke:#000000;stroke-width:0.26458332px;stroke-linecap:butt;stroke-linejoin:miter;stroke-opacity:1"
       d="m 32.69567,253.75144 -2.27179,5.07812 6.28083,2.53906 -0.53454,3.34087 -1.20271,5.7463 2.6727,6.68174 9.85815,-5.15071 -1.84027,-8.07899 -2.6727,-8.01811 -0.21187,-8.00675 1.81586,-5.4236 z"
       id="path95833" />
    <path
       style="fill:none;stroke:#000000;stroke-width:1;stroke-linecap:butt;stroke-linejoin:miter;stroke-opacity:1;stroke-miterlimit:4;stroke-dasharray:none"
       d="m 72.25177,265.37752 -37.284546,5.07824 -8.022249,1.1343 -4.035411,3.67987 a 39.999999,39.999999 0 0 0 31.87919,15.89929 39.999999,39.999999 0 0 0 34.189643,-19.33267 l -5.234305,-4.18734 z"
       id="path12263" />
    <path
       style="fill:#ffffff;stroke:#000000;stroke-width:0.7;stroke-linecap:butt;stroke-linejoin:miter;stroke-opacity:1;stroke-miterlimit:4;stroke-dasharray:none"
       d="m 67.90843,267.0481 c -0.47247,-0.94494 -1.00155,-2.88435 -1.00155,-2.88435 l -2.86233,3.45976 -9.00954,2.0232 -8.91682,-3.49859 1.38012,5.8387 5.68829,3.93147 2.09751,5.82135 2.13399,-4.33484 z"
       id="path94964" />
    <path
       style="fill:#ffffff;stroke:#000000;stroke-width:0.26458332px;stroke-linecap:butt;stroke-linejoin:miter;stroke-opacity:1"
       d="m 41.86595,241.57967 0.66146,12.47321 0.28348,6.89808 3.3073,5.19716 5.76413,4.8192 9.16593,0.18898 5.66964,-5.10267 3.49628,-6.14212 -0.96995,-14.74567 -2.43184,-12.5631 -21.63913,-0.85045 z"
       id="path94966" />
    <path
       style="fill:#000000;stroke:#000000;stroke-width:0.26458332px;stroke-linecap:butt;stroke-linejoin:miter;stroke-opacity:1"
       d="m 48.55003,235.62194 2.45685,-1.4174 4.77195,0.61421 3.30729,-1.41741 4.8192,1.18117 1.79538,2.36236 -0.0945,2.36235 1.93713,3.40178 1.37016,1.32292 0.33073,1.13393 -0.47247,-8.64621 -4.86644,-7.03981 -7.2288,-3.40178 -11.00855,2.97656 z"
       id="path94943" />
    <path
       style="fill:#000000;fill-opacity:1;stroke:#000000;stroke-width:0.26458332px;stroke-linecap:butt;stroke-linejoin:miter;stroke-opacity:1"
       d="m 46.393401,241.18985 -4.480865,1.26865 0.61495,11.59413 0.283186,6.89828 3.307292,5.1971 5.764506,4.81934 9.165849,0.18914 5.669423,-5.10305 3.496426,-6.14174 -0.131775,-2.00505 -0.236159,0.25477 -1.002525,2.87321 -2.137855,1.46968 -1.269687,-0.0667 -0.401011,-1.46967 -0.801502,-2.47272 -1.73736,-1.46968 -4.075721,-2.13837 -0.267684,0.40101 -1.20251,1.40301 -1.336353,-1.26917 -1.26969,0.601 -2.739366,1.53685 -2.004531,2.07171 -1.73736,4.40955 -1.002006,0.60152 -1.203029,-0.73484 -1.403014,-3.80855 -1.26969,-4.20957 0.06718,-7.6171 0.86868,-4.47673 z m 10.095507,16.61914 0.708483,0.51986 0.945163,-0.30747 1.771986,0.0713 2.315104,0.92139 1.795238,3.09438 0.826823,1.96061 -0.212908,2.36265 -1.369941,0.87384 -1.488281,-0.33073 -1.606622,-0.37775 -1.511535,-0.96893 -1.606619,-1.20458 -1.629875,1.79524 -2.338875,1.29966 -1.984375,0.28319 -1.440738,-1.62988 -0.638204,-1.25212 0.401524,-1.39371 0.496093,-0.89762 0.898139,-1.18132 0.613915,-1.03922 1.181323,-1.15755 1.748213,-0.85059 z m 0.486275,4.13308 -0.300757,0.30075 -0.284221,0.46768 0.18397,0.56792 0.58446,0.4346 1.369941,-1.05265 0.300757,-0.41755 -0.93586,-0.21704 z"
       id="path94968" />
    <path
       style="fill:#ffffff;stroke:#000000;stroke-width:0.2;stroke-linecap:butt;stroke-linejoin:miter;stroke-miterlimit:4;stroke-dasharray:none;stroke-opacity:1"
       d="m 69.82222,253.73454 0.39141,-0.35059 0.53454,-1.9043 -0.10023,-2.90655 -0.13363,-1.9043 v -0.53454 l -0.86863,0.56795 -0.2389,1.63928 z"
       id="path95819" />
    <path
       style="fill:#000000;stroke:#000000;stroke-width:0.26458332px;stroke-linecap:butt;stroke-linejoin:miter;stroke-opacity:1"
       d="m 63.756682,241.4043 -1.771468,0.18914 -0.968933,0.28318 -2.102197,0.40153 -1.01596,0.44907 0.09457,0.87385 0.590664,0.47284 2.05517,-0.3545 1.488281,-0.61444 2.834971,-0.30695 0.77928,0.16536 0.472839,-0.40152 -0.992187,-1.03922 z m -15.651242,0.6196 -1.464509,0.40153 -0.661458,1.60662 0.377754,0.37775 1.133782,-0.54311 2.409671,-0.11835 2.575036,0.30748 1.464511,0.28319 0.945161,-0.4961 -0.04702,-0.77928 -1.724959,-0.51986 -2.527495,-0.3545 z"
       id="path95782" />
    <path
       style="fill:none;stroke:#000000;stroke-width:0.15000001;stroke-linecap:butt;stroke-linejoin:miter;stroke-miterlimit:4;stroke-dasharray:none;stroke-opacity:1"
       d="m 62.46566,260.33674 -2.05525,-1.37016 -1.48828,-0.37797 -0.87407,0.11811 -0.70871,0.47247 -1.27566,-0.47247 -1.13393,0.0472 -1.01581,0.51973 -0.68509,0.49608 -0.85044,0.75596 -0.99219,0.99219 1.2048,-0.35435 2.22061,0.16537 c 0,0 0.68508,0.16535 0.8032,0.14174 0.11812,-0.0236 1.53553,0.21261 1.53553,0.21261 l 2.43322,-0.28349 1.55915,-0.56696 z"
       id="path95792" />
    <path
       style="fill:none;stroke:#000000;stroke-width:0.26458332px;stroke-linecap:butt;stroke-linejoin:miter;stroke-opacity:1"
       d="m 52.59103,261.16351 1.34654,-0.7559 1.86626,-0.23624 1.44103,0.21262 1.58277,-0.33073 1.08669,-0.0473 1.29929,0.11811 1.25205,0.21262"
       id="path95794" />
    <path
       style="fill:#000000;stroke:#000000;stroke-width:0.26458332px;stroke-linecap:butt;stroke-linejoin:miter;stroke-opacity:1"
       d="m 59.063944,253.17878 -0.92139,0.82682 0.661458,-0.047 0.613916,0.21238 0.330729,-0.14159 0.04754,-0.40152 -0.401527,-0.44907 z m -4.630208,0.14159 -0.378272,0.33073 0.11834,0.63821 0.0708,0.51934 0.141592,0.21291 0.259935,0.11782 0.14211,-0.33073 0.353983,-0.49609 0.47284,0.25993 -0.330729,-0.87385 z"
       id="path95796" />
    <path
       style="fill:none;stroke:#000000;stroke-width:0.15000001;stroke-linecap:butt;stroke-linejoin:miter;stroke-miterlimit:4;stroke-dasharray:none;stroke-opacity:1"
       d="m 59.58359,246.61148 1.72451,0.37797 1.39379,0.0236 1.34654,-0.35435 1.01581,-0.59059 -0.54334,-0.49609 -1.15755,-0.89769 h -1.58278 l -1.22842,-0.0236 -0.37797,0.18899 -0.77958,0.7087 v 0"
       id="path95800" />
    <path
       style="fill:none;stroke:#000000;stroke-width:0.15000001;stroke-linecap:butt;stroke-linejoin:miter;stroke-miterlimit:4;stroke-dasharray:none;stroke-opacity:1"
       d="m 53.13437,245.87912 -0.30711,-0.28348 -1.06305,-0.30711 h -1.44104 l -1.44103,0.37798 -1.03944,0.92131 0.11812,0.4016 0.56696,0.0709 0.35436,0.37799 1.06306,0.25986 1.53552,-0.11813 0.92132,-0.35435 c 0,0 1.15755,0.14174 1.25205,0.14174"
       id="path95802" />
    <path
       style="fill:none;stroke:#000000;stroke-width:0.26458332px;stroke-linecap:butt;stroke-linejoin:miter;stroke-opacity:1"
       d="m 47.46473,247.69816 1.37016,-1.32292 1.65365,-0.33073 1.27567,-0.0472 0.94493,0.33073 0.59059,0.47246 0.35436,0.56697 v 0"
       id="path95804" />
    <path
       style="fill:none;stroke:#000000;stroke-width:0.26458332px;stroke-linecap:butt;stroke-linejoin:miter;stroke-opacity:1"
       d="m 65.017,246.6351 -1.01581,-0.70869 -1.72452,-0.47247 -1.46466,0.21261 -0.94494,0.47247 0.0236,-0.0236"
       id="path95806" />
    <ellipse
       style="opacity:0.94499966;fill:#000000;fill-opacity:1;stroke:#000000;stroke-width:0.15614791;stroke-linecap:round;stroke-miterlimit:4;stroke-dasharray:none;stroke-dashoffset:0;stroke-opacity:1;paint-order:stroke fill markers"
       id="path95808"
       cx="62.0168"
       cy="246.19807"
       rx="0.98911351"
       ry="0.85918415" />
    <ellipse
       ry="0.85918415"
       rx="0.98911351"
       cy="246.79942"
       cx="50.791473"
       id="ellipse95823"
       style="opacity:0.94499966;fill:#000000;fill-opacity:1;stroke:#000000;stroke-width:0.15614791;stroke-linecap:round;stroke-miterlimit:4;stroke-dasharray:none;stroke-dashoffset:0;stroke-opacity:1;paint-order:stroke fill markers" />
    <path
       style="fill:#ffffff;stroke:#000000;stroke-width:1;stroke-linecap:butt;stroke-linejoin:miter;stroke-opacity:1;stroke-miterlimit:4;stroke-dasharray:none"
       d="m 57.95264,228.49448 -12.56167,12.96257 -12.6953,12.29439 3.74177,-16.03617 5.07812,-10.95805 14.96709,-6.01356 9.35444,1.33635 7.75081,8.28535 3.20724,13.89802 5.61266,14.69983 -9.08717,6.81536 -5.07812,3.74178 -10.82441,7.88445 8.15172,-9.48806 8.95353,-6.54811 3.34087,-2.80633 -5.07813,-13.76438 -5.74629,-7.75082 -4.54358,-5.34539 z"
       id="path94939" />
    <path
       style="fill:#000000;stroke:#000000;stroke-width:0.26458332px;stroke-linecap:butt;stroke-linejoin:miter;stroke-opacity:1"
       d="m 64.500822,243.42795 c 0,0 -3.742092,0.46785 -3.875733,0.50126 -0.13363,0.0334 -2.505273,0.90227 -2.505273,0.90227 l -1.670698,0.40101 -2.806031,-0.30075 -0.960149,-0.55449 -3.817337,-0.11369 -3.942395,0.50075 -3.106788,1.03611 -0.401007,0.26716 0.10025,1.67019 1.336353,2.07171 1.002006,2.27169 1.303282,1.40302 3.808552,0.50126 3.006535,-0.80202 1.703771,-1.50327 0.835607,-1.53685 0.73484,-2.0712 0.401008,-1.16943 0.600999,-0.30076 1.637109,0.50126 0.701765,2.43861 1.503267,2.13837 1.069187,0.60152 2.706293,0.33382 3.808553,-0.56792 1.202512,-1.00201 0.718302,-2.12855 -0.166399,-1.37924 1.085207,-1.40353 0.501261,-1.63711 -0.03359,-0.13333 -0.935342,-0.36793 -1.133265,0.0362 -2.040703,-0.53692 z m -0.594278,0.44339 2.528009,0.047 1.511536,0.16537 0.189137,0.77979 0.401526,1.65365 0.496094,1.11001 -0.0708,1.60662 -0.87385,1.67742 -1.653646,0.87384 -2.055169,0.40153 -1.937351,-0.11782 -1.606621,-0.4253 -0.968415,-0.80357 -0.613915,-1.29914 -0.543637,-1.72445 -0.165365,-1.70118 0.685229,-1.18081 1.230934,-0.52555 1.509467,-0.34881 z m -13.323736,0.82682 1.93735,0.25942 1.441257,0.6382 0.637686,1.08675 -0.306957,1.77147 -0.543636,2.43345 -0.732256,0.87384 -1.629876,1.08676 -2.528009,0.40152 -2.503723,-0.16536 -1.488281,-0.73226 -1.134298,-1.62987 -0.236162,-0.89762 -0.722436,-1.94148 0.533299,-1.90945 1.441257,-0.49609 1.79524,-0.40153 1.866551,-0.30695 z"
       id="path95825" />
    <path
       style="fill:#ffffff;stroke:#000000;stroke-width:0.2;stroke-linecap:butt;stroke-linejoin:miter;stroke-miterlimit:4;stroke-dasharray:none;stroke-opacity:1"
       d="m 41.51556,247.73788 -0.46772,0.56795 0.43431,0.93544 0.63477,2.13816 0.10023,1.9377 -0.26727,1.67044 1.03567,1.67043 -0.20995,-2.36796 c 0.0964,-2.69024 0.0612,-5.73633 -0.002,-6.40706 z"
       id="path95821" />
    <path
       style="fill:none;stroke:#000000;stroke-width:0.26458332px;stroke-linecap:butt;stroke-linejoin:miter;stroke-opacity:1"
       d="m 29.39274,277.86538 -0.56696,3.40179"
       id="path12295" />
    <path
       style="fill:none;stroke:#000000;stroke-width:0.26458332px;stroke-linecap:butt;stroke-linejoin:miter;stroke-opacity:1"
       d="m 75.50584,271.25081 4.53571,4.34672 2.07887,5.10267"
       id="path12297" />
    <path
       style="fill:none;stroke:#000000;stroke-width:0.26458332px;stroke-linecap:butt;stroke-linejoin:miter;stroke-opacity:1"
       d="m 45.17325,231.75229 -9.92188,11.1503"
       id="path12301" />
    <path
       style="fill:none;stroke:#000000;stroke-width:0.5;stroke-linecap:butt;stroke-linejoin:miter;stroke-miterlimit:4;stroke-dasharray:none;stroke-opacity:1"
       d="m 55.28411,281.73964 -1.79539,5.95313 0.56697,3.40178"
       id="path12303" />
  </g>
</svg>
